<svg xmlns="http://www.w3.org/2000/svg" viewBox="0 0 476 476"><defs><style>.cls-1{fill:#e5e1e1;}.cls-2{fill:#fff;}.cls-3{fill:#e2e0e0;}.cls-4{fill:#63bce7;}.cls-5{fill:#6377e7;}.cls-6{fill:#67dceb;}.cls-7{fill:#f0a500;}.cls-8{fill:#f9a703;}.cls-9{fill:#fcaa06;}.cls-10{fill:#d69209;}.cls-11{fill:#f9a003;}.cls-12{fill:#f8af23;}.cls-13{fill:#e74425;}.cls-14{fill:#e29803;}.cls-15{fill:#df2119;}.cls-16{fill:#3f3679;}</style></defs><g id="Слой_2" data-name="Слой 2"><g id="Layer_1" data-name="Layer 1"><circle class="cls-1" cx="238" cy="238" r="238"/><circle class="cls-2" cx="238" cy="238" r="220.08"/><circle class="cls-3" cx="238" cy="238" r="203.35"/><g id="smm"><path class="cls-4" d="M289.54,350.28H186.46a16.37,16.37,0,0,1-16.37-16.37V129.32A16.37,16.37,0,0,1,186.46,113H289.54a16.37,16.37,0,0,1,16.37,16.37V333.91A16.37,16.37,0,0,1,289.54,350.28Z"/><path class="cls-5" d="M190.06,333.91V129.32A16.37,16.37,0,0,1,206.43,113h-20a16.37,16.37,0,0,0-16.37,16.37V333.91a16.37,16.37,0,0,0,16.37,16.37h20a16.37,16.37,0,0,1-16.37-16.37Z"/><path class="cls-6" d="M285.94,333.91V129.32A16.37,16.37,0,0,0,269.57,113h20a16.37,16.37,0,0,1,16.37,16.37V333.91a16.37,16.37,0,0,1-16.37,16.37h-20a16.37,16.37,0,0,0,16.37-16.37Z"/><path class="cls-7" d="M170.09,333.91a16.37,16.37,0,0,0,16.37,16.37H289.54a16.37,16.37,0,0,0,16.37-16.37V319.72H170.09Z"/><path class="cls-8" d="M190.06,333.91V319.72h-20v14.19a16.37,16.37,0,0,0,16.37,16.37h20A16.37,16.37,0,0,1,190.06,333.91Z"/><path class="cls-9" d="M285.94,333.91V319.72h20v14.19a16.37,16.37,0,0,1-16.37,16.37h-20A16.37,16.37,0,0,0,285.94,333.91Z"/><path class="cls-7" d="M305.91,129.32A16.37,16.37,0,0,0,289.54,113H186.46a16.37,16.37,0,0,0-16.37,16.37v14.19H305.91V129.32Z"/><path class="cls-10" d="M206.43,113h-20a16.37,16.37,0,0,0-16.37,16.37v14.19h20V129.32A16.37,16.37,0,0,1,206.43,113Z"/><path class="cls-11" d="M269.57,113h20a16.37,16.37,0,0,1,16.37,16.37v14.19h-20V129.32A16.37,16.37,0,0,0,269.57,113Z"/><path class="cls-12" d="M213.7,124.8h48v6.86h-48Z"/><circle class="cls-13" cx="237.36" cy="335.53" r="5.83"/><path class="cls-7" d="M318.16,179.92H157.84a6.64,6.64,0,0,0-6.65,6.64v90.11a6.64,6.64,0,0,0,6.65,6.64h57.43a6.65,6.65,0,0,1,5.2,2.51l12.33,15.5a6.65,6.65,0,0,0,10.4,0l12.33-15.5a6.67,6.67,0,0,1,5.2-2.51h57.43a6.64,6.64,0,0,0,6.65-6.64V186.56a6.64,6.64,0,0,0-6.65-6.64Z"/><path class="cls-14" d="M171.16,276.67V186.56a6.64,6.64,0,0,1,6.65-6.64h-20a6.64,6.64,0,0,0-6.65,6.64v90.11a6.64,6.64,0,0,0,6.65,6.64h20A6.64,6.64,0,0,1,171.16,276.67Z"/><path class="cls-8" d="M304.84,276.67V186.56a6.64,6.64,0,0,0-6.65-6.64h20a6.64,6.64,0,0,1,6.65,6.64v90.11a6.64,6.64,0,0,1-6.65,6.64h-20A6.64,6.64,0,0,0,304.84,276.67Z"/><path class="cls-15" d="M270.89,236.28H257.27L260.4,227h10.49a6.61,6.61,0,1,0,0-13.21h-6.06l4.57-13.64a6.6,6.6,0,1,0-12.52-4.2l-6,17.84H237.09l4.57-13.64a6.6,6.6,0,1,0-12.52-4.2l-6,17.84h-18a6.61,6.61,0,1,0,0,13.21h13.62l-3.13,9.33H205.11a6.61,6.61,0,1,0,0,13.22h6.06l-4.57,13.64a6.6,6.6,0,0,0,4.16,8.36,6.7,6.7,0,0,0,2.1.35,6.61,6.61,0,0,0,6.26-4.51l6-17.84h13.81l-4.57,13.64a6.6,6.6,0,0,0,4.16,8.36,6.69,6.69,0,0,0,2.1.34,6.6,6.6,0,0,0,6.26-4.5l6-17.84h18a6.61,6.61,0,1,0,0-13.22Zm-41.36,0,3.13-9.33h13.81l-3.13,9.33Z"/><path class="cls-16" d="M261.71,123.14h-48A1.66,1.66,0,0,0,212,124.8v6.86a1.66,1.66,0,0,0,1.66,1.66h48a1.66,1.66,0,0,0,1.66-1.66V124.8A1.66,1.66,0,0,0,261.71,123.14ZM260.05,130H215.36v-3.54h44.69Z"/><path class="cls-16" d="M237.36,328a7.49,7.49,0,1,0,7.49,7.49,7.5,7.5,0,0,0-7.49-7.49Zm0,11.66a4.17,4.17,0,1,1,4.17-4.17,4.17,4.17,0,0,1-4.17,4.17Z"/><path class="cls-16" d="M258.34,153.3h-11.6a1.66,1.66,0,0,0,0,3.32h11.6a1.66,1.66,0,1,0,0-3.32Z"/><path class="cls-16" d="M127.08,361.39H107a1.66,1.66,0,1,0,0,3.32h20.09a1.66,1.66,0,0,0,0-3.32Z"/><path class="cls-16" d="M369,361.39H348.92a1.66,1.66,0,0,0,0,3.32H369a1.66,1.66,0,1,0,0-3.32Z"/><path class="cls-16" d="M332.87,361.39H143.13a1.66,1.66,0,0,0,0,3.32H332.87a1.66,1.66,0,0,0,0-3.32Z"/><path class="cls-16" d="M107,351.94h8.63a1.66,1.66,0,1,0,0-3.32H107a1.66,1.66,0,1,0,0,3.32Z"/><path class="cls-16" d="M360.38,351.94H369a1.66,1.66,0,1,0,0-3.32h-8.63a1.66,1.66,0,1,0,0,3.32Z"/><path class="cls-16" d="M127.08,351.94H348.92a1.66,1.66,0,0,0,0-3.32h-49a18,18,0,0,0,7.65-14.71V285h10.59a8.31,8.31,0,0,0,8.31-8.3V186.56a8.31,8.31,0,0,0-8.31-8.3H307.57V129.32a18.05,18.05,0,0,0-18-18H186.46a18,18,0,0,0-18,18v48.94h-10.6a8.31,8.31,0,0,0-8.31,8.3v90.11a8.31,8.31,0,0,0,8.31,8.3h10.6v48.94a18,18,0,0,0,7.64,14.71h-49a1.66,1.66,0,0,0,0,3.32Zm44.67-222.62a14.73,14.73,0,0,1,14.71-14.71H289.54a14.73,14.73,0,0,1,14.71,14.71v12.53H171.75Zm0,27.3h63.3a1.66,1.66,0,0,0,0-3.32h-63.3v-8.13h132.5v33.09H171.75Zm-18.9,120.05V186.56a5,5,0,0,1,5-5H318.16a5,5,0,0,1,5,5v90.11a5,5,0,0,1-5,5H260.73a8.28,8.28,0,0,0-6.5,3.14l-12.33,15.5a5,5,0,0,1-7.8,0l-12.33-15.5a8.28,8.28,0,0,0-6.5-3.14H157.84a5,5,0,0,1-5-5Zm62.42,8.3a5,5,0,0,1,3.9,1.88l12.33,15.5a8.3,8.3,0,0,0,13,0l12.33-15.5a5,5,0,0,1,3.9-1.88h43.52v33.1H171.75V285Zm-43.52,48.94V321.38h132.5v12.53a14.73,14.73,0,0,1-14.71,14.71H186.46A14.73,14.73,0,0,1,171.75,333.91Z"/><path class="cls-16" d="M229.53,237.94h13.81a1.67,1.67,0,0,0,1.57-1.13l3.13-9.33a1.66,1.66,0,0,0-1.58-2.19h-13.8a1.67,1.67,0,0,0-1.57,1.13L228,235.75a1.66,1.66,0,0,0,1.57,2.19Zm4.33-9.33h10.3l-2,6h-10.3Z"/><path class="cls-16" d="M220.7,267.86l5.6-16.71h10.3l-3.84,11.46A8.27,8.27,0,0,0,238,273.07a8.14,8.14,0,0,0,2.63.43,8.26,8.26,0,0,0,7.83-5.64l5.6-16.71h16.86a8.27,8.27,0,1,0,0-16.53H259.58l2-6h9.3a8.27,8.27,0,1,0,0-16.53h-3.76L271,200.62a8.27,8.27,0,0,0-15.68-5.25l-5.6,16.71H239.4l3.84-11.46a8.27,8.27,0,0,0-15.68-5.25L222,212.08H205.11a8.27,8.27,0,1,0,0,16.53h11.31l-2,6h-9.29a8.27,8.27,0,1,0,0,16.53h3.75L205,262.61a8.27,8.27,0,0,0,5.21,10.46,8.14,8.14,0,0,0,2.63.43,8.26,8.26,0,0,0,7.84-5.64Zm-7.84,2.32a4.93,4.93,0,0,1-4.69-6.52L212.74,250a1.66,1.66,0,0,0-1.57-2.18h-6.06a4.95,4.95,0,1,1,0-9.9H215.6a1.67,1.67,0,0,0,1.57-1.13l3.13-9.33a1.66,1.66,0,0,0-1.58-2.19H205.11a4.95,4.95,0,1,1,0-9.89h18a1.66,1.66,0,0,0,1.57-1.14l6-17.84a4.95,4.95,0,0,1,9.38,3.15l-4.57,13.64a1.66,1.66,0,0,0,1.57,2.19H250.9a1.67,1.67,0,0,0,1.57-1.13l6-17.85a4.95,4.95,0,0,1,9.38,3.15l-4.57,13.64a1.66,1.66,0,0,0,1.57,2.19h6.07a4.95,4.95,0,0,1,0,9.89H260.4a1.66,1.66,0,0,0-1.57,1.14l-3.13,9.32a1.66,1.66,0,0,0,1.58,2.19H270.9a5,5,0,1,1,0,9.9h-18a1.66,1.66,0,0,0-1.58,1.13l-6,17.84a4.95,4.95,0,1,1-9.38-3.15L240.48,250a1.65,1.65,0,0,0-1.57-2.18h-13.8a1.66,1.66,0,0,0-1.58,1.13l-6,17.84a4.94,4.94,0,0,1-4.69,3.37Z"/></g></g></g></svg>