<?xml version="1.0" encoding="utf-8"?>
<!-- Generator: Adobe Illustrator 24.2.3, SVG Export Plug-In . SVG Version: 6.00 Build 0)  -->
<svg version="1.1" id="Layer_1" xmlns="http://www.w3.org/2000/svg" xmlns:xlink="http://www.w3.org/1999/xlink" x="0px" y="0px"
	 viewBox="0 0 512 512" style="enable-background:new 0 0 512 512;" xml:space="preserve">
<style type="text/css">
	.st0{fill:#E5E1E1;}
	.st1{fill:#FFFFFF;}
	.st2{fill:#E2E0E0;}
	.st3{display:none;}
	.st4{display:inline;fill:#63BCE7;}
	.st5{display:inline;}
	.st6{fill:#6377E7;}
	.st7{fill:#67DCEB;}
	.st8{display:inline;fill:#F0A500;}
	.st9{fill:#F9A703;}
	.st10{fill:#FCAA06;}
	.st11{fill:#D69209;}
	.st12{fill:#F9A003;}
	.st13{display:inline;fill:#F8AF23;}
	.st14{display:inline;fill:#E74425;}
	.st15{fill:#E29803;}
	.st16{display:inline;fill:#DF2119;}
	.st17{fill:#3F3679;}
	.st18{display:inline;fill:#9E9E9E;}
	.st19{fill:#F46275;}
	.st20{fill:#F43075;}
	.st21{fill:#F48875;}
	.st22{fill:#F8AF23;}
	.st23{fill:#63BCE7;}
	.st24{fill:#9E9E9E;}
	.st25{fill:#E8991A;}
	.st26{fill:#FCB94C;}
	.st27{display:inline;fill:#FFC76E;}
	.st28{display:inline;fill:#FCAF32;}
	.st29{display:inline;fill:#FCA315;}
	.st30{display:inline;fill:#F46275;}
	.st31{fill:#FF9E12;}
	.st32{fill:#F8D323;}
	.st33{fill:#FC990B;}
	.st34{fill:#FFBC50;}
	.st35{fill:#F87023;}
	.st36{fill:#707070;}
	.st37{fill:#CECECE;}
	.st38{fill:#FC9E08;}
	.st39{fill:#F9A115;}
	.st40{fill:#FFBB4D;}
</style>
<g>
	<g>
		<circle class="st0" cx="256" cy="256" r="238"/>
		<circle class="st1" cx="256" cy="256" r="220.1"/>
		<circle class="st2" cx="256" cy="256" r="203.3"/>
	</g>
</g>
<g id="smm" class="st3">
	<path class="st4" d="M307.5,368.3H204.5c-9,0-16.4-7.3-16.4-16.4V147.3c0-9,7.3-16.4,16.4-16.4h103.1c9,0,16.4,7.3,16.4,16.4v204.6
		C323.9,361,316.6,368.3,307.5,368.3z"/>
	<g class="st5">
		<path class="st6" d="M208.1,351.9V147.3c0-9,7.3-16.4,16.4-16.4h-20c-9,0-16.4,7.3-16.4,16.4v204.6c0,9,7.3,16.4,16.4,16.4h20
			C215.4,368.3,208.1,361,208.1,351.9L208.1,351.9z"/>
	</g>
	<g class="st5">
		<path class="st7" d="M303.9,351.9V147.3c0-9-7.3-16.4-16.4-16.4h20c9,0,16.4,7.3,16.4,16.4v204.6c0,9-7.3,16.4-16.4,16.4h-20
			C296.6,368.3,303.9,361,303.9,351.9L303.9,351.9z"/>
	</g>
	<path class="st8" d="M188.1,351.9c0,9,7.3,16.4,16.4,16.4h103.1c9,0,16.4-7.3,16.4-16.4v-14.2H188.1V351.9z"/>
	<g class="st5">
		<path class="st9" d="M208.1,351.9v-14.2h-20v14.2c0,9,7.3,16.4,16.4,16.4h20C215.4,368.3,208.1,361,208.1,351.9z"/>
	</g>
	<g class="st5">
		<path class="st10" d="M303.9,351.9v-14.2h20v14.2c0,9-7.3,16.4-16.4,16.4h-20C296.6,368.3,303.9,361,303.9,351.9z"/>
	</g>
	<path class="st8" d="M323.9,147.3c0-9-7.3-16.4-16.4-16.4H204.5c-9,0-16.4,7.3-16.4,16.4v14.2h135.8L323.9,147.3L323.9,147.3z"/>
	<g class="st5">
		<path class="st11" d="M224.4,131h-20c-9,0-16.4,7.3-16.4,16.4v14.2h20v-14.2C208.1,138.3,215.4,131,224.4,131z"/>
	</g>
	<g class="st5">
		<path class="st12" d="M287.6,131h20c9,0,16.4,7.3,16.4,16.4v14.2h-20v-14.2C303.9,138.3,296.6,131,287.6,131z"/>
	</g>
	<path class="st13" d="M231.7,142.8h48v6.9h-48V142.8z"/>
	<circle class="st14" cx="255.4" cy="353.5" r="5.8"/>
	<path class="st8" d="M336.2,197.9H175.8c-3.7,0-6.6,3-6.6,6.6v90.1c0,3.7,3,6.6,6.6,6.6h57.4c2,0,3.9,0.9,5.2,2.5l12.3,15.5
		c2.7,3.3,7.7,3.3,10.4,0l12.3-15.5c1.3-1.6,3.2-2.5,5.2-2.5h57.4c3.7,0,6.6-3,6.6-6.6v-90.1C342.8,200.9,339.8,197.9,336.2,197.9
		L336.2,197.9z"/>
	<g class="st5">
		<path class="st15" d="M189.2,294.7v-90.1c0-3.7,3-6.6,6.6-6.6h-20c-3.7,0-6.6,3-6.6,6.6v90.1c0,3.7,3,6.6,6.6,6.6h20
			C192.1,301.3,189.2,298.3,189.2,294.7z"/>
	</g>
	<g class="st5">
		<path class="st9" d="M322.8,294.7v-90.1c0-3.7-3-6.6-6.6-6.6h20c3.7,0,6.6,3,6.6,6.6v90.1c0,3.7-3,6.6-6.6,6.6h-20
			C319.9,301.3,322.8,298.3,322.8,294.7z"/>
	</g>
	<path class="st16" d="M288.9,254.3h-13.6l3.1-9.3h10.5c3.6,0,6.6-3,6.6-6.6c0-3.6-3-6.6-6.6-6.6h-6.1l4.6-13.6
		c1.2-3.5-0.7-7.2-4.2-8.4c-3.5-1.2-7.2,0.7-8.4,4.2l-6,17.8h-13.8l4.6-13.6c1.2-3.5-0.7-7.2-4.2-8.4c-3.5-1.2-7.2,0.7-8.4,4.2
		l-6,17.8h-18c-3.6,0-6.6,3-6.6,6.6s3,6.6,6.6,6.6h13.6l-3.1,9.3h-10.5c-3.6,0-6.6,3-6.6,6.6c0,3.6,3,6.6,6.6,6.6h6.1l-4.6,13.6
		c-1.2,3.5,0.7,7.2,4.2,8.4c0.7,0.2,1.4,0.3,2.1,0.3c2.8,0,5.3-1.7,6.3-4.5l6-17.8h13.8l-4.6,13.6c-1.2,3.5,0.7,7.2,4.2,8.4
		c0.7,0.2,1.4,0.3,2.1,0.3c2.8,0,5.3-1.7,6.3-4.5l6-17.8h18c3.6,0,6.6-3,6.6-6.6C295.5,257.2,292.5,254.3,288.9,254.3L288.9,254.3z
		 M247.5,254.3l3.1-9.3h13.8l-3.1,9.3H247.5z"/>
	<g class="st5">
		<path class="st17" d="M279.7,141.1h-48c-0.9,0-1.7,0.7-1.7,1.7v6.9c0,0.9,0.7,1.7,1.7,1.7h48c0.9,0,1.7-0.7,1.7-1.7v-6.9
			C281.4,141.9,280.6,141.1,279.7,141.1z M278.1,148h-44.7v-3.5h44.7V148z"/>
		<path class="st17" d="M255.4,346c-4.1,0-7.5,3.4-7.5,7.5c0,4.1,3.4,7.5,7.5,7.5s7.5-3.4,7.5-7.5C262.9,349.4,259.5,346,255.4,346
			L255.4,346z M255.4,357.7c-2.3,0-4.2-1.9-4.2-4.2s1.9-4.2,4.2-4.2c2.3,0,4.2,1.9,4.2,4.2S257.7,357.7,255.4,357.7L255.4,357.7z"/>
		<path class="st17" d="M276.3,171.3h-11.6c-0.9,0-1.7,0.7-1.7,1.7s0.7,1.7,1.7,1.7h11.6c0.9,0,1.7-0.7,1.7-1.7
			S277.3,171.3,276.3,171.3z"/>
		<path class="st17" d="M145.1,379.4H125c-0.9,0-1.7,0.7-1.7,1.7s0.7,1.7,1.7,1.7h20.1c0.9,0,1.7-0.7,1.7-1.7S146,379.4,145.1,379.4
			z"/>
		<path class="st17" d="M387,379.4h-20.1c-0.9,0-1.7,0.7-1.7,1.7s0.7,1.7,1.7,1.7H387c0.9,0,1.7-0.7,1.7-1.7S387.9,379.4,387,379.4z
			"/>
		<path class="st17" d="M350.9,379.4H161.1c-0.9,0-1.7,0.7-1.7,1.7s0.7,1.7,1.7,1.7h189.7c0.9,0,1.7-0.7,1.7-1.7
			S351.8,379.4,350.9,379.4z"/>
		<path class="st17" d="M125,369.9h8.6c0.9,0,1.7-0.7,1.7-1.7s-0.7-1.7-1.7-1.7H125c-0.9,0-1.7,0.7-1.7,1.7S124.1,369.9,125,369.9z"
			/>
		<path class="st17" d="M378.4,369.9h8.6c0.9,0,1.7-0.7,1.7-1.7s-0.7-1.7-1.7-1.7h-8.6c-0.9,0-1.7,0.7-1.7,1.7
			S377.5,369.9,378.4,369.9z"/>
		<path class="st17" d="M145.1,369.9h59.4h103.1h59.4c0.9,0,1.7-0.7,1.7-1.7s-0.7-1.7-1.7-1.7h-49c4.6-3.3,7.6-8.6,7.6-14.7v-14.2
			V303h10.6c4.6,0,8.3-3.7,8.3-8.3v-90.1c0-4.6-3.7-8.3-8.3-8.3h-10.6v-34.7v-14.2c0-9.9-8.1-18-18-18H204.5c-9.9,0-18,8.1-18,18
			v14.2v34.8h-10.6c-4.6,0-8.3,3.7-8.3,8.3v90.1c0,4.6,3.7,8.3,8.3,8.3h10.6v34.8v14.2c0,6.1,3,11.4,7.6,14.7h-49
			c-0.9,0-1.7,0.7-1.7,1.7C143.4,369.2,144.2,369.9,145.1,369.9L145.1,369.9z M189.8,147.3c0-8.1,6.6-14.7,14.7-14.7h103.1
			c8.1,0,14.7,6.6,14.7,14.7v12.5H189.8V147.3z M189.8,174.6h63.3c0.9,0,1.7-0.7,1.7-1.7s-0.7-1.7-1.7-1.7h-63.3v-8.1h132.5v33.1
			H189.8V174.6z M170.9,294.7v-90.1c0-2.7,2.2-5,5-5h160.3c2.7,0,5,2.2,5,5v90.1c0,2.7-2.2,5-5,5h-57.4c-2.5,0-4.9,1.1-6.5,3.1
			l-12.3,15.5c-1,1.2-2.4,1.9-3.9,1.9c-1.5,0-2.9-0.7-3.9-1.9l-12.3-15.5c-1.6-2-4-3.1-6.5-3.1h-57.4
			C173.1,299.7,170.9,297.4,170.9,294.7L170.9,294.7z M233.3,303c1.5,0,2.9,0.7,3.9,1.9l12.3,15.5c1.6,2,4,3.1,6.5,3.1
			c2.5,0,4.9-1.1,6.5-3.1l12.3-15.5c1-1.2,2.4-1.9,3.9-1.9h43.5v33.1H189.8V303H233.3z M189.8,351.9v-12.5h132.5v12.5
			c0,8.1-6.6,14.7-14.7,14.7H204.5C196.4,366.6,189.8,360,189.8,351.9z"/>
		<path class="st17" d="M247.5,255.9h13.8c0.7,0,1.3-0.5,1.6-1.1l3.1-9.3c0.2-0.5,0.1-1.1-0.2-1.5c-0.3-0.4-0.8-0.7-1.3-0.7h-13.8
			c-0.7,0-1.3,0.5-1.6,1.1l-3.1,9.3c-0.2,0.5-0.1,1.1,0.2,1.5C246.5,255.7,247,255.9,247.5,255.9z M251.9,246.6h10.3l-2,6h-10.3
			L251.9,246.6z"/>
		<path class="st17" d="M238.7,285.9l5.6-16.7h10.3l-3.8,11.5c-1.4,4.3,0.9,9,5.2,10.5c0.9,0.3,1.7,0.4,2.6,0.4
			c3.6,0,6.7-2.3,7.8-5.6l5.6-16.7h16.9c4.6,0,8.3-3.7,8.3-8.3c0-4.6-3.7-8.3-8.3-8.3h-11.3l2-6h9.3c4.6,0,8.3-3.7,8.3-8.3
			s-3.7-8.3-8.3-8.3h-3.8l3.8-11.5c1.4-4.3-0.9-9-5.2-10.5c-4.3-1.4-9,0.9-10.5,5.2l-5.6,16.7h-10.3l3.8-11.5
			c1.4-4.3-0.9-9-5.2-10.5c-4.3-1.4-9,0.9-10.5,5.2l-5.6,16.7h-16.9c-4.6,0-8.3,3.7-8.3,8.3s3.7,8.3,8.3,8.3h11.3l-2,6h-9.3
			c-4.6,0-8.3,3.7-8.3,8.3c0,4.6,3.7,8.3,8.3,8.3h3.8l-3.8,11.5c-1.4,4.3,0.9,9,5.2,10.5c0.9,0.3,1.7,0.4,2.6,0.4
			C234.4,291.5,237.6,289.2,238.7,285.9L238.7,285.9z M230.9,288.2c-0.5,0-1.1-0.1-1.6-0.3c-2.6-0.9-4-3.7-3.1-6.3l4.6-13.6
			c0.2-0.5,0.1-1.1-0.2-1.5c-0.3-0.4-0.8-0.7-1.3-0.7h-6.1c-2.7,0-4.9-2.2-4.9-4.9s2.2-4.9,4.9-4.9h10.5c0.7,0,1.3-0.5,1.6-1.1
			l3.1-9.3c0.2-0.5,0.1-1.1-0.2-1.5c-0.3-0.4-0.8-0.7-1.3-0.7h-13.6c-2.7,0-4.9-2.2-4.9-4.9s2.2-4.9,4.9-4.9h18
			c0.7,0,1.3-0.5,1.6-1.1l6-17.8c0.9-2.6,3.7-4,6.3-3.1c2.6,0.9,4,3.7,3.1,6.3l-4.6,13.6c-0.2,0.5-0.1,1.1,0.2,1.5s0.8,0.7,1.3,0.7
			h13.8c0.7,0,1.3-0.5,1.6-1.1l6-17.8c0.9-2.6,3.7-4,6.3-3.1c2.6,0.9,4,3.7,3.1,6.3l-4.6,13.6c-0.2,0.5-0.1,1.1,0.2,1.5
			c0.3,0.4,0.8,0.7,1.3,0.7h6.1c2.7,0,4.9,2.2,4.9,4.9c0,2.7-2.2,4.9-4.9,4.9h-10.5c-0.7,0-1.3,0.5-1.6,1.1l-3.1,9.3
			c-0.2,0.5-0.1,1.1,0.2,1.5c0.3,0.4,0.8,0.7,1.3,0.7h13.6c2.7,0,4.9,2.2,4.9,4.9s-2.2,4.9-4.9,4.9h-18c-0.7,0-1.3,0.5-1.6,1.1
			l-6,17.8c-0.7,2-2.6,3.4-4.7,3.4c-0.5,0-1.1-0.1-1.6-0.3c-2.6-0.9-4-3.7-3.1-6.3l4.6-13.6c0.2-0.5,0.1-1.1-0.2-1.5
			c-0.3-0.4-0.8-0.7-1.3-0.7h-13.8c-0.7,0-1.3,0.5-1.6,1.1l-6,17.8C234.9,286.8,233,288.2,230.9,288.2L230.9,288.2z"/>
	</g>
</g>
<g id="SERM" class="st3">
	<path class="st4" d="M367.4,327.2H144.6c-7.8,0-14.2-6.4-14.2-14.2V139.6c0-7.8,6.4-14.2,14.2-14.2h222.7c7.8,0,14.2,6.4,14.2,14.2
		V313C381.6,320.8,375.2,327.2,367.4,327.2z"/>
	<g class="st5">
		<path class="st6" d="M151.8,313V139.6c0-7.8,6.4-14.2,14.2-14.2h-21.4c-7.8,0-14.2,6.4-14.2,14.2V313c0,7.8,6.4,14.2,14.2,14.2
			H166C158.2,327.2,151.8,320.8,151.8,313z"/>
	</g>
	<g class="st5">
		<path class="st7" d="M360.2,313V139.6c0-7.8-6.4-14.2-14.2-14.2h21.4c7.8,0,14.2,6.4,14.2,14.2V313c0,7.8-6.4,14.2-14.2,14.2H346
			C353.8,327.2,360.2,320.8,360.2,313z"/>
	</g>
	<path class="st18" d="M328.6,270.9H183.4c-11.7,0-21.2-9.5-21.2-21.2c0-11.7,9.5-21.2,21.2-21.2h145.2c11.7,0,21.2,9.5,21.2,21.2
		C349.8,261.4,340.3,270.9,328.6,270.9z"/>
	<g class="st5">
		<path class="st19" d="M381.6,139.6c0-7.8-6.4-14.2-14.2-14.2H144.6c-7.8,0-14.2,6.4-14.2,14.2v32.6h251.1V139.6z"/>
	</g>
	<g class="st5">
		<path class="st20" d="M166,125.4h-21.4c-7.8,0-14.2,6.4-14.2,14.2v32.6h21.4v-32.6C151.8,131.8,158.2,125.4,166,125.4z"/>
	</g>
	<g class="st5">
		<path class="st21" d="M346,125.4h21.4c7.8,0,14.2,6.4,14.2,14.2v32.6h-21.4v-32.6C360.2,131.8,353.8,125.4,346,125.4z"/>
	</g>
	<g class="st5">
		<circle class="st19" cx="256" cy="249.7" r="54.9"/>
		<circle class="st22" cx="256" cy="249.7" r="40.8"/>
	</g>
	<path class="st13" d="M256,364.9c-8.1,0-14.6-6.5-14.6-14.6v-19.9c0-8.1,6.5-14.6,14.6-14.6s14.6,6.5,14.6,14.6v19.9
		C270.6,358.4,264.1,364.9,256,364.9z"/>
	<g class="st5">
		<path class="st19" d="M275.7,269.6l-21-11v-20.2l21-11V269.6z"/>
		<path class="st23" d="M275.7,227.4h9.5v42.2h-9.5V227.4z"/>
		<path class="st23" d="M237.1,238.4h17.6v20.2h-17.6V238.4z"/>
		<g>
			<path class="st19" d="M226.8,243.4h10.3v10.1h-10.3V243.4z"/>
			<path class="st19" d="M239.8,258.6h10.8v13.5h-10.8L239.8,258.6z"/>
		</g>
	</g>
	<g class="st5">
		<g>
			<circle class="st22" cx="159.9" cy="148.8" r="9.8"/>
			<circle class="st22" cx="189.9" cy="148.8" r="9.8"/>
			<circle class="st22" cx="219.9" cy="148.8" r="9.8"/>
		</g>
		<path class="st24" d="M357.6,153.1h-52.3c-2.4,0-4.3-1.9-4.3-4.3c0-2.4,1.9-4.3,4.3-4.3h52.3c2.4,0,4.3,1.9,4.3,4.3
			C361.9,151.1,359.9,153.1,357.6,153.1z"/>
	</g>
	<g class="st5">
		<path class="st17" d="M137.4,376.8h-21.5c-1,0-1.8,0.8-1.8,1.8c0,1,0.8,1.8,1.8,1.8h21.5c1,0,1.8-0.8,1.8-1.8
			C139.2,377.6,138.4,376.8,137.4,376.8z"/>
		<path class="st17" d="M396.1,376.8h-21.5c-1,0-1.8,0.8-1.8,1.8c0,1,0.8,1.8,1.8,1.8h21.5c1,0,1.8-0.8,1.8-1.8
			C397.8,377.6,397,376.8,396.1,376.8z"/>
		<path class="st17" d="M357.4,376.8H154.6c-1,0-1.8,0.8-1.8,1.8c0,1,0.8,1.8,1.8,1.8h202.9c1,0,1.8-0.8,1.8-1.8
			C359.2,377.6,358.4,376.8,357.4,376.8z"/>
		<path class="st17" d="M115.9,366.7h9.2c1,0,1.8-0.8,1.8-1.8c0-1-0.8-1.8-1.8-1.8h-9.2c-1,0-1.8,0.8-1.8,1.8
			C114.2,365.9,115,366.7,115.9,366.7z"/>
		<path class="st17" d="M386.8,366.7h9.2c1,0,1.8-0.8,1.8-1.8c0-1-0.8-1.8-1.8-1.8h-9.2c-1,0-1.8,0.8-1.8,1.8
			C385.1,365.9,385.9,366.7,386.8,366.7z"/>
		<path class="st17" d="M144.6,329h95c0,0.5-0.1,0.9-0.1,1.4v19.9c0,5.2,2.4,9.9,6.2,12.9H137.4c-1,0-1.8,0.8-1.8,1.8
			c0,1,0.8,1.8,1.8,1.8h237.2c1,0,1.8-0.8,1.8-1.8c0-1-0.8-1.8-1.8-1.8H266.2c3.8-3,6.2-7.6,6.2-12.9v-19.9c0-0.5,0-0.9-0.1-1.4h95
			c8.8,0,16-7.2,16-16V172.2v-32.6c0-8.8-7.2-16-16-16H144.6c-8.8,0-16,7.2-16,16v32.6V313C128.7,321.8,135.8,329,144.6,329
			L144.6,329z M268.9,350.3c0,7.1-5.8,12.9-12.9,12.9c-7.1,0-12.9-5.8-12.9-12.9v-19.9c0-7.1,5.8-12.9,12.9-12.9
			c7.1,0,12.9,5.8,12.9,12.9V350.3z M202.9,249.7c0-29.3,23.8-53.1,53.1-53.1s53.1,23.8,53.1,53.1s-23.8,53.1-53.1,53.1
			C226.7,302.8,202.9,279,202.9,249.7L202.9,249.7z M202.8,269.2h-19.4c-10.7,0-19.4-8.7-19.4-19.4c0-10.7,8.7-19.4,19.4-19.4h19.4
			c-2.2,6.1-3.4,12.6-3.4,19.4C199.3,256.6,200.6,263.1,202.8,269.2z M309.2,230.3h19.4c10.7,0,19.4,8.7,19.4,19.4
			c0,10.7-8.7,19.4-19.4,19.4h-19.4c2.2-6.1,3.4-12.6,3.4-19.4C312.7,242.9,311.4,236.4,309.2,230.3L309.2,230.3z M132.2,139.6
			c0-6.8,5.6-12.4,12.4-12.4h222.7c6.8,0,12.4,5.6,12.4,12.4v30.9H132.2V139.6z M132.2,190.9h63.2c1,0,1.8-0.8,1.8-1.8
			s-0.8-1.8-1.8-1.8h-63.2V174h247.6v139c0,6.8-5.6,12.4-12.4,12.4h-95.7c-1.9-6.1-7.3-10.6-13.9-11.4v-7.8
			c22.3-0.7,41.4-14.3,50-33.6h20.8c12.7,0,23-10.3,23-23c0-12.7-10.3-23-23-23h-20.8c-8.8-19.8-28.7-33.7-51.8-33.7
			s-42.9,13.9-51.8,33.7h-20.8c-12.7,0-23,10.3-23,23c0,12.7,10.3,23,23,23h20.8c8.6,19.3,27.7,32.9,50,33.6v7.8
			c-6.5,0.7-11.9,5.3-13.9,11.4h-95.7c-6.8,0-12.4-5.6-12.4-12.4L132.2,190.9z"/>
		<path class="st17" d="M256,292.3c23.5,0,42.6-19.1,42.6-42.6s-19.1-42.6-42.6-42.6c-23.5,0-42.6,19.1-42.6,42.6
			S232.5,292.3,256,292.3L256,292.3z M256,210.7c21.5,0,39.1,17.5,39.1,39.1s-17.5,39.1-39.1,39.1s-39.1-17.5-39.1-39.1
			S234.5,210.7,256,210.7L256,210.7z"/>
		<path class="st17" d="M235.3,258.6c0,1,0.8,1.8,1.8,1.8h1v11.7c0,1,0.8,1.8,1.8,1.8h10.8c1,0,1.8-0.8,1.8-1.8v-11.7h1.9l20.6,10.8
			v0c0.2,0.1,0.5,0.2,0.8,0.2h9.5c1,0,1.8-0.8,1.8-1.8v-42.2c0-1-0.8-1.8-1.8-1.8h-9.5c-0.3,0-0.6,0.1-0.8,0.2v0l-20.6,10.8h-17.2
			c-1,0-1.8,0.8-1.8,1.8v3.3h-8.5c-1,0-1.8,0.8-1.8,1.8v10.1c0,1,0.8,1.8,1.8,1.8h8.5V258.6z M277.5,229.2h6v38.6h-6V229.2z
			 M248.8,270.3h-7.3v-10h7.3V270.3z M273.9,266.6l-17.4-9.1v-18l17.4-9.1V266.6z M238.8,240.2h14.1v16.6h-2.3h-10.8h-1v-3.3v-10.1
			L238.8,240.2L238.8,240.2z M228.5,251.8v-6.5h6.7v6.5H228.5z"/>
		<path class="st17" d="M159.9,137.3c-6.4,0-11.6,5.2-11.6,11.6s5.2,11.6,11.6,11.6c6.4,0,11.6-5.2,11.6-11.6
			S166.3,137.3,159.9,137.3z M159.9,156.9c-4.4,0-8-3.6-8-8s3.6-8,8-8c4.4,0,8,3.6,8,8S164.3,156.9,159.9,156.9z"/>
		<path class="st17" d="M189.9,137.3c-6.4,0-11.6,5.2-11.6,11.6s5.2,11.6,11.6,11.6s11.6-5.2,11.6-11.6S196.3,137.3,189.9,137.3z
			 M189.9,156.9c-4.4,0-8-3.6-8-8s3.6-8,8-8s8,3.6,8,8S194.3,156.9,189.9,156.9z"/>
		<path class="st17" d="M219.9,137.3c-6.4,0-11.6,5.2-11.6,11.6s5.2,11.6,11.6,11.6s11.6-5.2,11.6-11.6S226.3,137.3,219.9,137.3z
			 M219.9,156.9c-4.4,0-8-3.6-8-8s3.6-8,8-8c4.4,0,8,3.6,8,8S224.3,156.9,219.9,156.9z"/>
		<path class="st17" d="M357.6,142.7h-52.3c-3.3,0-6.1,2.7-6.1,6.1s2.7,6.1,6.1,6.1h52.3c3.3,0,6.1-2.7,6.1-6.1
			S360.9,142.7,357.6,142.7z M357.6,151.3h-52.3c-1.4,0-2.5-1.1-2.5-2.5c0-1.4,1.1-2.5,2.5-2.5h52.3c1.4,0,2.5,1.1,2.5,2.5
			C360.1,150.2,359,151.3,357.6,151.3z"/>
		<path class="st17" d="M208.4,190.9h8c1,0,1.8-0.8,1.8-1.8c0-1-0.8-1.8-1.8-1.8h-8c-1,0-1.8,0.8-1.8,1.8
			C206.6,190.1,207.4,190.9,208.4,190.9z"/>
	</g>
</g>
<g id="Аналитика" class="st3">
	<g class="st5">
		<path class="st23" d="M370.7,359.3H141.3c-8,0-14.6-6.6-14.6-14.6V145.3c0-8,6.6-14.6,14.6-14.6h229.3c8,0,14.6,6.6,14.6,14.6
			v199.4C385.3,352.7,378.7,359.3,370.7,359.3z"/>
		<g>
			<path class="st6" d="M148.7,344.7V145.3c0-8,6.6-14.6,14.6-14.6h-22c-8,0-14.6,6.6-14.6,14.6v199.4c0,8,6.6,14.6,14.6,14.6h22
				C155.3,359.3,148.7,352.7,148.7,344.7z"/>
		</g>
		<g>
			<path class="st7" d="M363.3,344.7V145.3c0-8-6.6-14.6-14.6-14.6h22c8,0,14.6,6.6,14.6,14.6v199.4c0,8-6.6,14.6-14.6,14.6h-22
				C356.7,359.3,363.3,352.7,363.3,344.7z"/>
		</g>
		<g>
			<path class="st22" d="M385.3,145.3c0-8-6.6-14.6-14.6-14.6H141.3c-8,0-14.6,6.6-14.6,14.6v33.6h258.6V145.3z"/>
		</g>
		<g>
			<path class="st25" d="M163.3,130.7h-22c-8,0-14.6,6.6-14.6,14.6v33.6h22v-33.6C148.7,137.2,155.3,130.7,163.3,130.7z"/>
		</g>
		<g>
			<path class="st26" d="M348.7,130.7h22c8,0,14.6,6.6,14.6,14.6v33.6h-22v-33.6C363.3,137.2,356.7,130.7,348.7,130.7z"/>
		</g>
		<g>
			<g>
				<circle class="st19" cx="157.1" cy="154.8" r="10.1"/>
				<circle class="st19" cx="188" cy="154.8" r="10.1"/>
				<circle class="st19" cx="218.9" cy="154.8" r="10.1"/>
			</g>
			<path class="st24" d="M360.6,159.1h-53.9c-2.4,0-4.4-2-4.4-4.4c0-2.4,2-4.4,4.4-4.4h53.9c2.4,0,4.4,2,4.4,4.4
				C365,157.1,363,159.1,360.6,159.1z"/>
		</g>
	</g>
	<path class="st27" d="M172.8,294.4h23.9v64.9h-23.9V294.4z"/>
	<path class="st28" d="M220.3,278.4h23.9v80.9h-23.9V278.4z"/>
	<path class="st29" d="M267.8,262.4h23.9v96.9h-23.9V262.4z"/>
	<g class="st5">
		<g>
			<path class="st22" d="M172.8,209h89.1v10h-89.1V209z"/>
			<path class="st24" d="M276.2,209h63v10h-63V209z"/>
		</g>
		<g>
			<path class="st22" d="M291.7,242.5h-23.9v-10h23.9V242.5z"/>
			<path class="st24" d="M255.7,242.5h-34.6v-10h34.6V242.5z"/>
			<path class="st23" d="M207.4,242.5h-34.6v-10h34.6V242.5z"/>
		</g>
		<g>
			<path class="st22" d="M172.8,255.9h71.4v10h-71.4V255.9z"/>
		</g>
	</g>
	<path class="st30" d="M312.1,359.3V251.6c0-0.6-0.5-1-1-1H306c-0.9,0-1.4-1.1-0.7-1.8l21.2-21.2c0.4-0.4,1.1-0.4,1.5,0l21.2,21.2
		c0.7,0.7,0.2,1.8-0.7,1.8h-5.1c-0.6,0-1,0.5-1,1v107.7L312.1,359.3L312.1,359.3z"/>
	<g class="st5">
		<path class="st17" d="M133.9,371.5h-22.1c-1,0-1.8,0.8-1.8,1.8s0.8,1.8,1.8,1.8h22.1c1,0,1.8-0.8,1.8-1.8S134.9,371.5,133.9,371.5
			z"/>
		<path class="st17" d="M400.2,371.5h-22.1c-1,0-1.8,0.8-1.8,1.8s0.8,1.8,1.8,1.8h22.1c1,0,1.8-0.8,1.8-1.8S401.2,371.5,400.2,371.5
			z"/>
		<path class="st17" d="M360.4,371.5H151.6c-1,0-1.8,0.8-1.8,1.8s0.8,1.8,1.8,1.8h208.9c1,0,1.8-0.8,1.8-1.8
			S361.4,371.5,360.4,371.5z"/>
		<path class="st17" d="M402.1,359.3c0-1-0.8-1.8-1.8-1.8H381c3.7-3,6.1-7.6,6.1-12.8V178.9v-33.6c0-9.1-7.4-16.4-16.4-16.4H141.3
			c-9.1,0-16.4,7.4-16.4,16.4v33.6v165.8c0,5.2,2.4,9.8,6.1,12.8h-19.3c-1,0-1.8,0.8-1.8,1.8s0.8,1.8,1.8,1.8h29.6h31.5h23.9h23.5
			h23.9h23.5h23.9h20.4h30.2h28.4h29.6C401.2,361.1,402.1,360.3,402.1,359.3L402.1,359.3z M128.5,145.3c0-7,5.7-12.8,12.8-12.8
			h229.3c7,0,12.8,5.7,12.8,12.8V177H128.5V145.3z M174.6,357.4v-61.3h20.3v61.3H174.6z M222.1,357.4v-77.2h20.3v77.2H222.1z
			 M269.6,357.4v-93.2h20.3v93.2H269.6z M313.9,357.4V251.6c0-1.6-1.3-2.9-2.9-2.9h-3.2l19.3-19.3l19.3,19.3h-3.2
			c-1.6,0-2.9,1.3-2.9,2.9v105.9H313.9z M344.1,357.4V252.4h4.3c1.2,0,2.2-0.7,2.7-1.8c0.4-1.1,0.2-2.3-0.6-3.1l-21.2-21.2
			c-1.1-1.1-2.9-1.1-4.1,0L304,247.5c-0.8,0.8-1.1,2.1-0.6,3.1c0.4,1.1,1.5,1.8,2.7,1.8h4.3v105.1h-16.8v-95c0-1-0.8-1.8-1.8-1.8
			h-23.9c-1,0-1.8,0.8-1.8,1.8v95h-19.9v-79.1c0-1-0.8-1.8-1.8-1.8h-23.9c-1,0-1.8,0.8-1.8,1.8v79.1h-19.9v-63.1
			c0-1-0.8-1.8-1.8-1.8h-23.9c-1,0-1.8,0.8-1.8,1.8v63.1h-29.7c-7,0-12.8-5.7-12.8-12.8V198.1h65.1c1,0,1.8-0.8,1.8-1.8
			c0-1-0.8-1.8-1.8-1.8h-65.1v-13.7h254.9v164c0,7-5.7,12.8-12.8,12.8H344.1z"/>
		<path class="st17" d="M157.1,142.9c-6.6,0-11.9,5.3-11.9,11.9c0,6.6,5.3,11.9,11.9,11.9c6.6,0,11.9-5.3,11.9-11.9
			C169,148.2,163.6,142.9,157.1,142.9z M157.1,163c-4.6,0-8.3-3.7-8.3-8.3c0-4.6,3.7-8.3,8.3-8.3c4.6,0,8.3,3.7,8.3,8.3
			C165.3,159.3,161.6,163,157.1,163z"/>
		<path class="st17" d="M188,142.9c-6.6,0-11.9,5.3-11.9,11.9c0,6.6,5.3,11.9,11.9,11.9s11.9-5.3,11.9-11.9
			C199.9,148.2,194.5,142.9,188,142.9z M188,163c-4.6,0-8.3-3.7-8.3-8.3c0-4.6,3.7-8.3,8.3-8.3c4.6,0,8.3,3.7,8.3,8.3
			C196.2,159.3,192.5,163,188,163z"/>
		<path class="st17" d="M218.9,142.9c-6.6,0-11.9,5.3-11.9,11.9c0,6.6,5.3,11.9,11.9,11.9c6.6,0,11.9-5.3,11.9-11.9
			C230.8,148.2,225.4,142.9,218.9,142.9z M218.9,163c-4.6,0-8.3-3.7-8.3-8.3c0-4.6,3.7-8.3,8.3-8.3c4.6,0,8.3,3.7,8.3,8.3
			C227.1,159.3,223.4,163,218.9,163z"/>
		<path class="st17" d="M360.6,148.5h-53.9c-3.4,0-6.2,2.8-6.2,6.2c0,3.4,2.8,6.2,6.2,6.2h53.9c3.4,0,6.2-2.8,6.2-6.2
			C366.8,151.3,364,148.5,360.6,148.5z M360.6,157.3h-53.9c-1.4,0-2.6-1.2-2.6-2.6c0-1.4,1.2-2.6,2.6-2.6h53.9
			c1.4,0,2.6,1.2,2.6,2.6C363.2,156.1,362,157.3,360.6,157.3z"/>
		<path class="st17" d="M207,198.1h8.2c1,0,1.8-0.8,1.8-1.8c0-1-0.8-1.8-1.8-1.8H207c-1,0-1.8,0.8-1.8,1.8
			C205.2,197.3,206,198.1,207,198.1z"/>
		<path class="st17" d="M261.9,207.2h-89.1c-1,0-1.8,0.8-1.8,1.8v10c0,1,0.8,1.8,1.8,1.8h89.1c1,0,1.8-0.8,1.8-1.8v-10
			C263.8,208,263,207.2,261.9,207.2z M260.1,217.3h-85.5v-6.4h85.5V217.3z"/>
		<path class="st17" d="M339.2,207.2h-63c-1,0-1.8,0.8-1.8,1.8v10c0,1,0.8,1.8,1.8,1.8h63c1,0,1.8-0.8,1.8-1.8v-10
			C341,208,340.2,207.2,339.2,207.2z M337.4,217.3H278v-6.4h59.4V217.3z"/>
		<path class="st17" d="M291.7,230.7h-23.9c-1,0-1.8,0.8-1.8,1.8v10c0,1,0.8,1.8,1.8,1.8h23.9c1,0,1.8-0.8,1.8-1.8v-10
			C293.5,231.5,292.7,230.7,291.7,230.7z M289.9,240.7h-20.3v-6.4h20.3V240.7z"/>
		<path class="st17" d="M255.7,230.7h-34.6c-1,0-1.8,0.8-1.8,1.8v10c0,1,0.8,1.8,1.8,1.8h34.6c1,0,1.8-0.8,1.8-1.8v-10
			C257.5,231.5,256.7,230.7,255.7,230.7L255.7,230.7z M253.9,240.7h-31v-6.4h31V240.7z"/>
		<path class="st17" d="M172.8,244.4h34.6c1,0,1.8-0.8,1.8-1.8v-10c0-1-0.8-1.8-1.8-1.8h-34.6c-1,0-1.8,0.8-1.8,1.8v10
			C171,243.5,171.8,244.4,172.8,244.4z M174.6,234.3h31v6.4h-31V234.3z"/>
		<path class="st17" d="M244.2,254.1h-71.4c-1,0-1.8,0.8-1.8,1.8v10c0,1,0.8,1.8,1.8,1.8h71.4c1,0,1.8-0.8,1.8-1.8v-10
			C246.1,254.9,245.2,254.1,244.2,254.1z M242.4,264.1h-67.8v-6.4h67.8V264.1z"/>
	</g>
</g>
<g id="Доработка_и_продвижение">
	<path class="st23" d="M377.9,359.7H138.5c-8.4,0-15.3-6.9-15.3-15.3V158c0-8.4,6.9-15.3,15.3-15.3h239.4c8.4,0,15.3,6.9,15.3,15.3
		v186.4C393.2,352.8,386.3,359.7,377.9,359.7z"/>
	<path class="st22" d="M320.9,314.4H191.1c-21,0-38-17-38-38c0-21,17-38,38-38h129.8c21,0,38,17,38,38
		C358.9,297.4,341.9,314.4,320.9,314.4z"/>
	<g>
		<path class="st23" d="M224.5,291.9l-13.4-14.4c-0.5-0.6-0.5-1.4,0-2l13.4-14.5c0.3-0.3,0.7-0.5,1.1-0.5H237c1.3,0,2,1.5,1.1,2.5
			l-11.5,12.5c-0.5,0.6-0.5,1.4,0,2l11.5,12.4c0.9,0.9,0.2,2.5-1.1,2.5h-11.4C225.2,292.3,224.8,292.2,224.5,291.9L224.5,291.9z"/>
		<path class="st23" d="M269,246.5l-14.2,60.4c-0.2,0.7-0.8,1.1-1.4,1.1h-8.9c-1,0-1.7-0.9-1.4-1.8l14.2-60.4
			c0.2-0.7,0.8-1.1,1.4-1.1h8.9C268.5,244.7,269.2,245.6,269,246.5z"/>
		<path class="st23" d="M275,260.5h11.4c0.4,0,0.8,0.2,1.1,0.5l13.4,14.5c0.5,0.6,0.5,1.4,0,2l-13.4,14.4c-0.3,0.3-0.7,0.5-1.1,0.5
			H275c-1.3,0-2-1.5-1.1-2.5l11.5-12.4c0.5-0.6,0.5-1.4,0-2l-11.5-12.5C273,262,273.7,260.5,275,260.5L275,260.5z"/>
	</g>
	<g>
		<path class="st6" d="M146.2,344.4V158c0-8.4,6.9-15.3,15.3-15.3h-23c-8.4,0-15.3,6.9-15.3,15.3v186.4c0,8.4,6.9,15.3,15.3,15.3h23
			C153.1,359.7,146.2,352.8,146.2,344.4z"/>
	</g>
	<g>
		<path class="st7" d="M370.2,344.4V158c0-8.4-6.9-15.3-15.3-15.3h23c8.4,0,15.3,6.9,15.3,15.3v186.4c0,8.4-6.9,15.3-15.3,15.3h-23
			C363.4,359.7,370.2,352.8,370.2,344.4z"/>
	</g>
	<g>
		<path class="st22" d="M393.2,158c0-8.4-6.9-15.3-15.3-15.3H138.5c-8.4,0-15.3,6.9-15.3,15.3v35.1h269.9V158z"/>
	</g>
	<g>
		<path class="st31" d="M161.5,142.8h-23c-8.4,0-15.3,6.9-15.3,15.3v35.1h23V158C146.2,149.6,153.1,142.8,161.5,142.8z"/>
	</g>
	<g>
		<path class="st21" d="M355,142.8h23c8.4,0,15.3,6.9,15.3,15.3v35.1h-23V158C370.2,149.6,363.4,142.8,355,142.8z"/>
	</g>
	<g>
		<circle class="st19" cx="154.9" cy="167.9" r="10.5"/>
		<circle class="st19" cx="187.2" cy="167.9" r="10.5"/>
		<circle class="st19" cx="219.4" cy="167.9" r="10.5"/>
	</g>
	<path class="st22" d="M367.3,176.4c0,29.7-12.9,56.4-33.5,74.7c39.9-1.6,71.8-34.4,71.8-74.7s-31.9-73.2-71.8-74.7
		C354.3,120,367.3,146.7,367.3,176.4z"/>
	<g>
		<path class="st32" d="M333.8,101.7c2.9,2.6,5.6,5.3,8.1,8.1c24.2,12.4,40.7,37.6,40.7,66.6s-16.6,54.2-40.7,66.6
			c-2.5,2.9-5.3,5.6-8.1,8.1c39.9-1.6,71.8-34.4,71.8-74.7S373.7,103.3,333.8,101.7L333.8,101.7z"/>
	</g>
	<path class="st22" d="M294.4,176.4c0-29.7,12.9-56.4,33.5-74.7c-39.9,1.6-71.8,34.4-71.8,74.7s31.9,73.2,71.8,74.7
		C307.3,232.8,294.4,206.1,294.4,176.4z"/>
	<path class="st22" d="M327.8,101.7c-20.5,18.3-33.5,45-33.5,74.7s12.9,56.4,33.5,74.7c1,0,2,0.1,3,0.1c1,0,2,0,3-0.1
		c20.5-18.3,33.5-45,33.5-74.7s-12.9-56.4-33.5-74.7c-1,0-2-0.1-3-0.1C329.8,101.6,328.8,101.7,327.8,101.7z"/>
	<circle class="st19" cx="330.8" cy="178.5" r="45.8"/>
	<g>
		<path class="st22" d="M345.8,155.6l-23.2,26.5L315,176c-3.4-2.7-8.4-2.2-11.1,1.2c-2.7,3.4-2.2,8.3,1.2,11.1l19.4,15.7l33.2-38
			c2.9-3.3,2.5-8.2-0.8-11.1C353.7,152,348.7,152.4,345.8,155.6L345.8,155.6z"/>
		<g>
			<path class="st17" d="M128.5,372.5h-23.1c-1.1,0-1.9,0.9-1.9,1.9s0.9,1.9,1.9,1.9h23.1c1.1,0,1.9-0.9,1.9-1.9
				S129.6,372.5,128.5,372.5z"/>
			<path class="st17" d="M406.6,372.5h-23.1c-1.1,0-1.9,0.9-1.9,1.9s0.9,1.9,1.9,1.9h23.1c1.1,0,1.9-0.9,1.9-1.9
				S407.6,372.5,406.6,372.5z"/>
			<path class="st17" d="M365,372.5H147c-1.1,0-1.9,0.9-1.9,1.9s0.9,1.9,1.9,1.9H365c1.1,0,1.9-0.9,1.9-1.9S366.1,372.5,365,372.5z"
				/>
			<path class="st17" d="M408.5,359.7c0-1.1-0.9-1.9-1.9-1.9h-17.9c3.9-3.1,6.4-8,6.4-13.3v-126c7.9-12.1,12.4-26.5,12.4-42
				c0-41.3-32.3-75-73.6-76.6c-2-0.1-4.1-0.1-6.2,0c-28.5,1.1-52.7,17.5-65,41.1H138.5c-9.5,0-17.2,7.7-17.2,17.2v35.1v151.3
				c0,5.4,2.5,10.2,6.4,13.3h-22.3c-1.1,0-1.9,0.9-1.9,1.9s0.9,1.9,1.9,1.9h33.1h239.4h28.6C407.6,361.6,408.5,360.7,408.5,359.7
				L408.5,359.7z M257.9,176.4c0-8.8,1.6-17.3,4.4-25.1h29.3c-5.4,7.7-8.5,17.1-8.5,27.2c0,8.4,2.2,16.2,6,23.1h-26.8
				C259.5,193.7,257.9,185.3,257.9,176.4L257.9,176.4z M330.8,134.6c24.2,0,43.8,19.7,43.8,43.8s-19.7,43.8-43.8,43.8
				S287,202.6,287,178.5S306.6,134.6,330.8,134.6z M333,249.3c-1.5,0.1-3,0.1-4.5,0c-9.4-8.5-17.1-18.8-22.6-30.1
				c7.2,4.4,15.7,7,24.8,7c9.1,0,17.6-2.6,24.8-7C350.1,230.5,342.4,240.8,333,249.3z M291.5,205.4c2.4,3.4,5.2,6.6,8.3,9.3
				c5.1,12.7,13,24.5,22.7,34.2c-26.6-3-48.6-20-58.7-43.5H291.5z M327.7,253.1c1,0,2,0.1,3.1,0.1s2.1,0,3.1-0.1
				c4.5-0.2,8.8-0.7,13.1-1.6c6.5,6.8,10.1,15.6,10.1,25c0,19.9-16.2,36.1-36.1,36.1H191.1c-19.9,0-36.1-16.2-36.1-36.1
				s16.2-36.1,36.1-36.1h97.2C299.6,247.9,313.1,252.5,327.7,253.1z M339,248.8c9.8-9.7,17.6-21.4,22.7-34.2c3.2-2.7,6-5.8,8.4-9.3
				h27.6C387.7,228.8,365.7,245.9,339,248.8z M399.3,201.5h-26.8c3.8-6.8,6-14.7,6-23.1c0-10.1-3.2-19.4-8.5-27.2h29.3
				c2.9,7.8,4.4,16.3,4.4,25.1C403.7,185.3,402.1,193.7,399.3,201.5L399.3,201.5z M397.8,147.5H367c-0.9-1.1-1.9-2.2-3-3.2l-0.2-0.5
				c-5-15-13.6-28.6-24.8-39.8C365.6,107,387.7,124,397.8,147.5z M333,103.6c11,9.9,19.6,22.3,25.1,35.9c-7.7-5.5-17.2-8.7-27.4-8.7
				c-10.2,0-19.6,3.2-27.4,8.7c5.5-13.6,14.1-25.9,25.1-35.9C330.1,103.5,331.6,103.5,333,103.6z M322.6,104
				c-11.4,11.3-19.9,25.1-25,40.3c-1,1-2,2.1-3,3.2h-30.8C273.9,124,296,107,322.6,104z M125.2,158c0-7.4,6-13.3,13.3-13.3h122.4
				c-4.4,9.7-6.8,20.4-6.8,31.7c0,5.1,0.5,10,1.4,14.8H125.2V158z M138.5,357.8c-7.4,0-13.3-6-13.3-13.3V213.1h67.9
				c1.1,0,1.9-0.9,1.9-1.9c0-1.1-0.9-1.9-1.9-1.9h-67.9V195h131.2c4.1,16.7,13.6,31.2,26.6,41.5h-91.9c-22,0-39.9,17.9-39.9,39.9
				c0,22,17.9,39.9,39.9,39.9h129.8c22,0,39.9-17.9,39.9-39.9c0-9.6-3.4-18.8-9.6-26c16.2-4.4,30.1-13.9,40.1-26.7v120.7
				c0,7.4-6,13.3-13.3,13.3H138.5z"/>
			<path class="st17" d="M223.1,293.2c0.6,0.7,1.5,1.1,2.5,1.1H237c1.3,0,2.6-0.8,3.1-2c0.5-1.2,0.3-2.7-0.6-3.7l-11.2-12.1
				l11.2-12.2c0.9-1,1.1-2.4,0.6-3.6c-0.5-1.2-1.8-2-3.1-2h-11.4c-0.9,0-1.9,0.4-2.5,1.1l-13.4,14.5c-1.2,1.3-1.2,3.3,0,4.6
				L223.1,293.2z M225.8,262.4h10.3l-10.9,11.8c-1.2,1.3-1.2,3.3,0,4.6l10.8,11.7h-10.2l-13-14L225.8,262.4z"/>
			<path class="st17" d="M244.5,310h8.9c1.6,0,2.9-1.1,3.3-2.6l14.2-60.4c0.2-1,0-2.1-0.6-2.9c-0.6-0.8-1.6-1.3-2.7-1.3h-8.9
				c-1.6,0-2.9,1.1-3.3,2.6l-14.2,60.4c-0.2,1,0,2.1,0.6,2.9C242.5,309.5,243.4,310,244.5,310z M259,246.6h8l-14,59.6h-8L259,246.6z
				"/>
			<path class="st17" d="M283.7,276.5l-11.2,12.1c-0.9,1-1.2,2.4-0.6,3.7c0.5,1.2,1.8,2,3.1,2h11.4c0.9,0,1.8-0.4,2.5-1.1l13.4-14.4
				c1.2-1.3,1.2-3.3,0-4.6l-13.4-14.5c-0.6-0.7-1.5-1.1-2.5-1.1H275c-1.3,0-2.6,0.8-3.1,2c-0.5,1.2-0.3,2.7,0.6,3.6L283.7,276.5z
				 M286.2,262.4l13,14.1l-13,14H276l10.8-11.7c1.2-1.3,1.2-3.3,0-4.6l-10.9-11.8H286.2z"/>
			<path class="st17" d="M154.9,155.5c-6.9,0-12.4,5.6-12.4,12.4c0,6.9,5.6,12.4,12.4,12.4s12.4-5.6,12.4-12.4
				C167.4,161.1,161.8,155.5,154.9,155.5z M154.9,176.5c-4.8,0-8.6-3.9-8.6-8.6c0-4.8,3.9-8.6,8.6-8.6s8.6,3.9,8.6,8.6
				C163.5,172.7,159.7,176.5,154.9,176.5z"/>
			<path class="st17" d="M187.2,155.5c-6.9,0-12.4,5.6-12.4,12.4c0,6.9,5.6,12.4,12.4,12.4s12.4-5.6,12.4-12.4
				C199.6,161.1,194,155.5,187.2,155.5z M187.2,176.5c-4.8,0-8.6-3.9-8.6-8.6c0-4.8,3.9-8.6,8.6-8.6s8.6,3.9,8.6,8.6
				C195.8,172.7,191.9,176.5,187.2,176.5z"/>
			<path class="st17" d="M219.4,155.5c-6.9,0-12.4,5.6-12.4,12.4c0,6.9,5.6,12.4,12.4,12.4s12.4-5.6,12.4-12.4
				C231.9,161.1,226.3,155.5,219.4,155.5z M219.4,176.5c-4.8,0-8.6-3.9-8.6-8.6c0-4.8,3.9-8.6,8.6-8.6s8.6,3.9,8.6,8.6
				C228.1,172.7,224.2,176.5,219.4,176.5z"/>
			<path class="st17" d="M207.1,213.1h8.6c1.1,0,1.9-0.9,1.9-1.9c0-1.1-0.9-1.9-1.9-1.9h-8.6c-1.1,0-1.9,0.9-1.9,1.9
				C205.2,212.3,206,213.1,207.1,213.1z"/>
			<path class="st17" d="M303.8,189.7l19.4,15.7c0.4,0.3,0.8,0.4,1.2,0.4c0.5,0,1.1-0.2,1.4-0.7l33.2-38c1.7-2,2.6-4.5,2.4-7.1
				c-0.2-2.6-1.4-5-3.3-6.7c-4.1-3.5-10.3-3.1-13.8,0.9l-22,25.2l-6.2-5c-4.2-3.4-10.4-2.7-13.8,1.4c-1.6,2-2.4,4.6-2.1,7.2
				C300.5,185.8,301.8,188.1,303.8,189.7L303.8,189.7z M305.3,178.4c1.2-1.5,2.9-2.2,4.7-2.2c1.3,0,2.7,0.4,3.8,1.3l7.6,6.2
				c0.8,0.6,2,0.5,2.6-0.2l23.2-26.5c0,0,0,0,0,0c2.2-2.5,6-2.7,8.5-0.6c1.2,1,1.9,2.5,2,4.1c0.1,1.6-0.4,3.1-1.5,4.3l-32,36.6
				l-18-14.5c-1.2-1-2-2.4-2.2-4C303.9,181.2,304.3,179.6,305.3,178.4z"/>
		</g>
	</g>
</g>
<g id="Разработка_сайтов" class="st3">
	<path class="st4" d="M141.1,322.7c-9,0-16.4-7.3-16.4-16.4V158.1c0-9,7.3-16.4,16.4-16.4h229.8c9,0,16.4,7.3,16.4,16.4v148.2
		c0,9-7.3,16.4-16.4,16.4L141.1,322.7L141.1,322.7z"/>
	<path class="st13" d="M377.2,292c0,3.5-2.8,6.3-6.3,6.3H141.1c-3.5,0-6.3-2.8-6.3-6.3V158.1c0-3.5,2.8-6.3,6.3-6.3h229.8
		c3.5,0,6.3,2.8,6.3,6.3L377.2,292L377.2,292z"/>
	<g class="st5">
		<path class="st33" d="M156.4,292V158.1c0-3.5,2.8-6.3,6.3-6.3h-21.6c-3.5,0-6.3,2.8-6.3,6.3V292c0,3.5,2.8,6.3,6.3,6.3h21.6
			C159.3,298.2,156.4,295.4,156.4,292z"/>
	</g>
	<g class="st5">
		<path class="st34" d="M355.6,292V158.1c0-3.5-2.8-6.3-6.3-6.3h21.6c3.5,0,6.3,2.8,6.3,6.3V292c0,3.5-2.8,6.3-6.3,6.3h-21.6
			C352.7,298.2,355.6,295.4,355.6,292z"/>
	</g>
	<path class="st13" d="M218.6,322.7h74.8v22.8h-74.8V322.7z"/>
	<g class="st5">
		<path class="st35" d="M218.6,322.7h21.6v22.8h-21.6V322.7z"/>
	</g>
	<g class="st5">
		<path class="st32" d="M271.8,322.7h21.6v22.8h-21.6V322.7z"/>
	</g>
	<circle class="st30" cx="256" cy="310.5" r="5.4"/>
	<path class="st18" d="M316.7,364H195.3v-12.5c0-3.3,2.7-6,6-6h109.4c3.3,0,6,2.7,6,6V364z"/>
	<g class="st5">
		<path class="st36" d="M222.9,345.5h-21.6c-3.3,0-6,2.7-6,6V364h21.6v-12.5C216.9,348.1,219.6,345.5,222.9,345.5z"/>
	</g>
	<g class="st5">
		<path class="st37" d="M289.1,345.5h21.6c3.3,0,6,2.7,6,6V364h-21.6v-12.5C295.1,348.1,292.4,345.5,289.1,345.5z"/>
	</g>
	<g class="st5">
		<path class="st23" d="M340.5,259.4H171.5c-5.9,0-10.8-4.8-10.8-10.8V117c0-5.9,4.8-10.8,10.8-10.8h169.1c5.9,0,10.8,4.8,10.8,10.8
			v131.6C351.3,254.6,346.5,259.4,340.5,259.4L340.5,259.4z"/>
		<g>
			<path class="st22" d="M351.3,117c0-5.9-4.8-10.8-10.8-10.8H171.5c-5.9,0-10.8,4.8-10.8,10.8v24.8h190.6L351.3,117L351.3,117z"/>
		</g>
		<g>
			<g>
				<circle class="st19" cx="183.1" cy="124" r="7.4"/>
				<circle class="st19" cx="205.8" cy="124" r="7.4"/>
				<circle class="st19" cx="228.6" cy="124" r="7.4"/>
			</g>
			<path class="st24" d="M333.7,127.2h-41c-1.5,0-2.6-1.2-2.6-2.6v-1.2c0-1.5,1.2-2.6,2.6-2.6h41c1.5,0,2.6,1.2,2.6,2.6v1.2
				C336.4,126,335.2,127.2,333.7,127.2z"/>
		</g>
	</g>
	<path class="st30" d="M176.9,151.8h158.2V198H176.9V151.8z"/>
	<g class="st5">
		<path class="st24" d="M176.9,206.8h45.5v23.9h-45.5V206.8z"/>
		<path class="st24" d="M233.3,206.8h45.5v23.9h-45.5V206.8z"/>
		<path class="st24" d="M289.6,206.8h45.5v23.9h-45.5L289.6,206.8z"/>
	</g>
	<path class="st30" d="M121.9,158.7v-22c0-0.5,0.4-0.9,0.9-0.9h24c0.5,0,0.9,0.4,0.9,0.9v22c0,0.5,0.4,0.9,0.9,0.9h4.3
		c0.8,0,1.2,1,0.6,1.5l-18.1,18.1c-0.3,0.3-0.9,0.3-1.3,0l-18.1-18.1c-0.6-0.6-0.2-1.5,0.6-1.5h4.3
		C121.5,159.6,121.9,159.2,121.9,158.7z"/>
	<g class="st5">
		<path class="st19" d="M364.3,160.7v-22c0-0.5,0.4-0.9,0.9-0.9h24c0.5,0,0.9,0.4,0.9,0.9v22c0,0.5,0.4,0.9,0.9,0.9h4.3
			c0.8,0,1.2,1,0.6,1.5l-18.1,18.1c-0.3,0.3-0.9,0.3-1.3,0l-18.1-18.1c-0.6-0.6-0.2-1.5,0.6-1.5h4.3
			C363.9,161.6,364.3,161.2,364.3,160.7L364.3,160.7z"/>
		<g>
			<path class="st17" d="M256,305.3c-4,0-7.2,3.2-7.2,7.2s3.2,7.2,7.2,7.2c4,0,7.2-3.2,7.2-7.2S260,305.3,256,305.3z M256,316.1
				c-2,0-3.6-1.6-3.6-3.6c0-2,1.6-3.6,3.6-3.6s3.6,1.6,3.6,3.6C259.6,314.4,258,316.1,256,316.1z"/>
			<path class="st17" d="M135.9,378h-21.8c-1,0-1.8,0.8-1.8,1.8s0.8,1.8,1.8,1.8h21.8c1,0,1.8-0.8,1.8-1.8S136.9,378,135.9,378z"/>
			<path class="st17" d="M397.8,378h-21.8c-1,0-1.8,0.8-1.8,1.8s0.8,1.8,1.8,1.8h21.8c1,0,1.8-0.8,1.8-1.8S398.8,378,397.8,378z"/>
			<path class="st17" d="M358.7,378H153.3c-1,0-1.8,0.8-1.8,1.8s0.8,1.8,1.8,1.8h205.4c1,0,1.8-0.8,1.8-1.8S359.7,378,358.7,378z"/>
			<path class="st17" d="M114.2,367.7h9.3c1,0,1.8-0.8,1.8-1.8s-0.8-1.8-1.8-1.8h-9.3c-1,0-1.8,0.8-1.8,1.8S113.2,367.7,114.2,367.7
				z"/>
			<path class="st17" d="M388.5,364.2c-1,0-1.8,0.8-1.8,1.8s0.8,1.8,1.8,1.8h9.3c1,0,1.8-0.8,1.8-1.8s-0.8-1.8-1.8-1.8H388.5z"/>
			<path class="st17" d="M183.1,135.2c5.1,0,9.2-4.1,9.2-9.2s-4.1-9.2-9.2-9.2c-5.1,0-9.2,4.1-9.2,9.2S178,135.2,183.1,135.2z
				 M183.1,120.4c3.1,0,5.6,2.5,5.6,5.6c0,3.1-2.5,5.6-5.6,5.6c-3.1,0-5.6-2.5-5.6-5.6C177.4,122.9,179.9,120.4,183.1,120.4z"/>
			<path class="st17" d="M205.8,135.2c5.1,0,9.2-4.1,9.2-9.2s-4.1-9.2-9.2-9.2s-9.2,4.1-9.2,9.2S200.7,135.2,205.8,135.2z
				 M205.8,120.4c3.1,0,5.6,2.5,5.6,5.6c0,3.1-2.5,5.6-5.6,5.6c-3.1,0-5.6-2.5-5.6-5.6C200.2,122.9,202.7,120.4,205.8,120.4z"/>
			<path class="st17" d="M228.6,135.2c5.1,0,9.2-4.1,9.2-9.2s-4.1-9.2-9.2-9.2c-5.1,0-9.2,4.1-9.2,9.2S223.5,135.2,228.6,135.2z
				 M228.6,120.4c3.1,0,5.6,2.5,5.6,5.6c0,3.1-2.5,5.6-5.6,5.6c-3.1,0-5.6-2.5-5.6-5.6C223,122.9,225.5,120.4,228.6,120.4z"/>
			<path class="st17" d="M292.8,131h41c2.4,0,4.4-2,4.4-4.4v-1.2c0-2.4-2-4.4-4.4-4.4h-41c-2.4,0-4.4,2-4.4,4.4v1.2
				C288.4,129,290.3,131,292.8,131z M291.9,125.3c0-0.5,0.4-0.8,0.8-0.8h41c0.5,0,0.8,0.4,0.8,0.8v1.2c0,0.5-0.4,0.8-0.8,0.8h-41
				c-0.5,0-0.8-0.4-0.8-0.8V125.3z"/>
			<path class="st17" d="M176.9,201.8h158.2c1,0,1.8-0.8,1.8-1.8v-46.2c0-1-0.8-1.8-1.8-1.8H176.9c-1,0-1.8,0.8-1.8,1.8V200
				C175.1,201,175.9,201.8,176.9,201.8z M178.7,155.6h154.6v42.6H178.7V155.6z"/>
			<path class="st17" d="M176.9,234.6h45.5c1,0,1.8-0.8,1.8-1.8v-23.9c0-1-0.8-1.8-1.8-1.8h-45.5c-1,0-1.8,0.8-1.8,1.8v23.9
				C175.1,233.8,175.9,234.6,176.9,234.6z M178.7,210.6h41.9V231h-41.9V210.6z"/>
			<path class="st17" d="M278.7,207h-45.5c-1,0-1.8,0.8-1.8,1.8v23.9c0,1,0.8,1.8,1.8,1.8h45.5c1,0,1.8-0.8,1.8-1.8v-23.9
				C280.5,207.8,279.7,207,278.7,207z M276.9,231h-41.9v-20.4h41.9V231z"/>
			<path class="st17" d="M335.1,207h-45.5c-1,0-1.8,0.8-1.8,1.8v23.9c0,1,0.8,1.8,1.8,1.8h45.5c1,0,1.8-0.8,1.8-1.8v-23.9
				C336.9,207.8,336.1,207,335.1,207L335.1,207z M333.3,231h-41.9v-20.4h41.9V231z"/>
			<path class="st17" d="M176.9,243.6h45.5c1,0,1.8-0.8,1.8-1.8c0-1-0.8-1.8-1.8-1.8h-45.5c-1,0-1.8,0.8-1.8,1.8
				C175.1,242.8,175.9,243.6,176.9,243.6z"/>
			<path class="st17" d="M278.7,240h-45.5c-1,0-1.8,0.8-1.8,1.8c0,1,0.8,1.8,1.8,1.8h45.5c1,0,1.8-0.8,1.8-1.8
				C280.5,240.8,279.7,240,278.7,240z"/>
			<path class="st17" d="M335.1,240h-45.5c-1,0-1.8,0.8-1.8,1.8c0,1,0.8,1.8,1.8,1.8h45.5c1,0,1.8-0.8,1.8-1.8
				C336.9,240.8,336.1,240,335.1,240L335.1,240z"/>
			<path class="st17" d="M176.9,252.5h45.5c1,0,1.8-0.8,1.8-1.8s-0.8-1.8-1.8-1.8h-45.5c-1,0-1.8,0.8-1.8,1.8
				S175.9,252.5,176.9,252.5z"/>
			<path class="st17" d="M278.7,249h-45.5c-1,0-1.8,0.8-1.8,1.8s0.8,1.8,1.8,1.8h45.5c1,0,1.8-0.8,1.8-1.8S279.7,249,278.7,249z"/>
			<path class="st17" d="M335.1,249h-45.5c-1,0-1.8,0.8-1.8,1.8s0.8,1.8,1.8,1.8h45.5c1,0,1.8-0.8,1.8-1.8S336.1,249,335.1,249
				L335.1,249z"/>
			<path class="st17" d="M122.9,172.5v135.8c0,10,8.1,18.2,18.2,18.2h75.7v19.2h-15.5c-4.3,0-7.8,3.5-7.8,7.8v10.7h-57.6
				c-1,0-1.8,0.8-1.8,1.8c0,1,0.8,1.8,1.8,1.8h59.4h121.4h59.4c1,0,1.8-0.8,1.8-1.8c0-1-0.8-1.8-1.8-1.8h-57.6v-10.7
				c0-4.3-3.5-7.8-7.8-7.8h-15.5v-19.2h75.7c10,0,18.2-8.1,18.2-18.2V172.6c0,0,0,0,0,0l8.2-8.2c0.8-0.8,1-1.9,0.6-2.9
				c-0.4-1-1.4-1.7-2.5-1.7h-3.4v-21.1c0-1.5-1.2-2.7-2.7-2.7h-24c-1.5,0-2.7,1.2-2.7,2.7v3.3h-9.4v-23v0c0-6.9-5.6-12.6-12.6-12.6
				h0H171.5h0c-6.9,0-12.6,5.6-12.6,12.6v0v23h-9.4v-3.3c0-1.5-1.2-2.7-2.7-2.7h-24c-1.5,0-2.7,1.2-2.7,2.7v21.1h-3.4
				c-1.1,0-2.1,0.7-2.5,1.7c-0.4,1-0.2,2.2,0.6,2.9L122.9,172.5z M314.9,353.4v10.7H197.1v-10.7c0-2.3,1.9-4.2,4.2-4.2h17.3h74.8
				h17.3C313,349.3,314.9,351.1,314.9,353.4z M291.6,345.7h-71.2v-19.2h71.2V345.7z M385.5,308.3c0,8-6.5,14.6-14.6,14.6h-77.5
				h-74.8h-77.5c-8,0-14.6-6.5-14.6-14.6V176.1l6.4,6.4c0,0,0.1,0.1,0.1,0.1V294c0,4.5,3.6,8.1,8.1,8.1h229.8c4.5,0,8.1-3.6,8.1-8.1
				V182.6c0,0,0.1-0.1,0.1-0.1l6.4-6.4V308.3z M155.4,161.5c-0.4-1-1.4-1.7-2.5-1.7h-3.4v-4.2h9.4v95c0,6.9,5.6,12.6,12.6,12.6
				h169.1c6.9,0,12.6-5.6,12.6-12.6v-95h9.4v4.2h-3.4c-1.1,0-2.1,0.7-2.5,1.7c-0.4,1-0.2,2.2,0.6,2.9l18.1,18.1c0,0,0.1,0.1,0.1,0.1
				V294c0,2.5-2,4.5-4.5,4.5H141.1c-2.5,0-4.5-2-4.5-4.5V182.6c0,0,0.1-0.1,0.1-0.1l18.1-18.1C155.6,163.6,155.8,162.5,155.4,161.5z
				 M162.5,145.6h187v105.1c0,5-4,9-9,9H171.5c-5,0-9-4-9-9L162.5,145.6z M366.1,139.6h22.2v21.1c0,1.5,1.2,2.7,2.7,2.7h2.1
				l-15.9,15.9l-15.9-15.9h2.1c1.5,0,2.7-1.2,2.7-2.7L366.1,139.6L366.1,139.6z M362.5,152h-9.4v-6.5h9.4V152z M340.5,110
				c5,0,9,4,9,9v23h-187v-23c0-5,4-9,9-9H340.5z M158.9,145.6v6.5h-9.4v-6.5H158.9z M121,163.4c1.5,0,2.7-1.2,2.7-2.7v-21.1h22.2
				v21.1c0,1.5,1.2,2.7,2.7,2.7h2.1l-15.9,15.9l-15.9-15.9H121z"/>
		</g>
	</g>
</g>
<g id="Реклама" class="st3">
	<path class="st4" d="M137.1,314.1c-9.3,0-16.9-7.6-16.9-16.9V143.8c0-9.3,7.6-16.9,16.9-16.9h237.8c9.3,0,16.9,7.6,16.9,16.9v153.4
		c0,9.3-7.6,16.9-16.9,16.9H137.1z"/>
	<path class="st13" d="M381.4,282.3c0,3.6-2.9,6.5-6.5,6.5H137.1c-3.6,0-6.5-2.9-6.5-6.5V143.8c0-3.6,2.9-6.5,6.5-6.5h237.8
		c3.6,0,6.5,2.9,6.5,6.5L381.4,282.3L381.4,282.3z"/>
	<g class="st5">
		<path class="st38" d="M153,282.3V143.8c0-3.6,2.9-6.5,6.5-6.5h-22.4c-3.6,0-6.5,2.9-6.5,6.5v138.5c0,3.6,2.9,6.5,6.5,6.5h22.4
			C155.9,288.8,153,285.9,153,282.3L153,282.3z"/>
	</g>
	<g class="st5">
		<path class="st34" d="M359,282.3V143.8c0-3.6-2.9-6.5-6.5-6.5h22.4c3.6,0,6.5,2.9,6.5,6.5v138.5c0,3.6-2.9,6.5-6.5,6.5h-22.4
			C356.1,288.8,359,285.9,359,282.3L359,282.3z"/>
	</g>
	<path class="st13" d="M217.3,314.1h77.4v23.6h-77.4V314.1z"/>
	<g class="st5">
		<path class="st35" d="M217.3,314.1h22.4v23.6h-22.4V314.1z"/>
	</g>
	<g class="st5">
		<path class="st32" d="M272.3,314.1h22.4v23.6h-22.4V314.1z"/>
	</g>
	<circle class="st30" cx="256" cy="301.5" r="5.6"/>
	<path class="st18" d="M318.8,356.8H193.2v-12.9c0-3.4,2.8-6.2,6.2-6.2h113.2c3.4,0,6.2,2.8,6.2,6.2V356.8z"/>
	<g class="st5">
		<path class="st36" d="M221.8,337.7h-22.4c-3.4,0-6.2,2.8-6.2,6.2v12.9h22.4v-12.9C215.6,340.4,218.3,337.7,221.8,337.7z"/>
	</g>
	<g class="st5">
		<path class="st37" d="M290.2,337.7h22.4c3.4,0,6.2,2.8,6.2,6.2v12.9h-22.4v-12.9C296.4,340.4,293.7,337.7,290.2,337.7z"/>
	</g>
	<g class="st5">
		<g>
			<g>
				<ellipse class="st19" cx="303.7" cy="214.1" rx="46.6" ry="47.7"/>
				<ellipse class="st22" cx="303.7" cy="214.1" rx="34.7" ry="35.5"/>
			</g>
			<path class="st22" d="M304.7,314.1c-7,0-12.7-5.7-12.7-12.7v-17.3c0-7,5.7-12.7,12.7-12.7c7,0,12.7,5.7,12.7,12.7v17.3
				C317.4,308.4,311.7,314.1,304.7,314.1z"/>
		</g>
		<g>
			<path class="st17" d="M322.4,214.1v12.1c0,0.9-0.4,1.8-1.1,2.5c-0.7,0.7-1.5,1-2.5,1h-10.7v8.5c0,1-0.3,1.8-1,2.5s-1.5,1-2.5,1
				c-1,0-1.8-0.3-2.5-1s-1-1.5-1-2.5v-8.6h-10.6c-0.9,0-1.8-0.3-2.5-1c-0.7-0.7-1-1.5-1-2.5s0.3-1.8,1-2.5c0.7-0.7,1.5-1,2.5-1h24.7
				v-5h-24.7c-1,0-1.8-0.3-2.5-1c-0.7-0.7-1-1.5-1-2.5V202c0-1,0.3-1.8,1-2.5c0.7-0.7,1.5-1,2.5-1H301V190c0-0.9,0.3-1.8,1-2.5
				c0.7-0.7,1.5-1,2.6-1c0.9,0,1.8,0.3,2.4,1c0.7,0.7,1,1.5,1,2.5v8.5h10.7c1,0,1.8,0.3,2.5,1c0.7,0.7,1.1,1.5,1.1,2.5
				c0,1-0.4,1.8-1.1,2.5c-0.7,0.7-1.5,1.1-2.5,1.1h-24.7v5h24.7c1,0,1.8,0.3,2.5,1C322,212.3,322.4,213.1,322.4,214.1L322.4,214.1z"
				/>
		</g>
		<g>
			<path class="st23" d="M159.7,231.7h19.5v30.1h-19.5V231.7z"/>
			<path class="st24" d="M188.1,218.6h19.5v43.2h-19.5V218.6z"/>
			<path class="st19" d="M216.6,205.5h19.5v56.3h-19.5V205.5z"/>
		</g>
	</g>
	<g class="st5">
		<path class="st17" d="M137.1,316h78.3v19.8h-16c-4.4,0-8.1,3.6-8.1,8.1V355h-59.6c-1,0-1.9,0.8-1.9,1.9c0,1,0.8,1.9,1.9,1.9h61.5
			h125.6h61.5c1,0,1.9-0.8,1.9-1.9c0-1-0.8-1.9-1.9-1.9h-59.6v-11.1c0-4.4-3.6-8.1-8.1-8.1h-16V316h78.3c10.4,0,18.8-8.4,18.8-18.8
			V143.8c0-10.4-8.4-18.8-18.8-18.8H137.1c-10.4,0-18.8,8.4-18.8,18.8v153.4C118.3,307.5,126.7,316,137.1,316L137.1,316z
			 M316.9,343.9V355H195.1v-11.1c0-2.4,1.9-4.3,4.3-4.3h17.9h77.4h17.9C315,339.5,316.9,341.5,316.9,343.9z M292.9,335.8h-73.7V316
			h73.7V335.8z M293.9,301.4v-17.3c0-6,4.9-10.8,10.8-10.8c6,0,10.8,4.9,10.8,10.8v17.3c0,6-4.9,10.8-10.8,10.8
			C298.7,312.2,293.9,307.4,293.9,301.4z M290.1,284.1v2.8h-153c-2.6,0-4.7-2.1-4.7-4.7V143.8c0-2.6,2.1-4.7,4.7-4.7h237.8
			c2.6,0,4.7,2.1,4.7,4.7v138.5c0,2.6-2.1,4.7-4.7,4.7h-55.6v-2.8c0-7.4-5.6-13.5-12.7-14.4v-6.1c26.4-1,47.7-22.8,47.7-49.5
			c0-27.3-22.2-49.5-49.5-49.5s-49.5,22.2-49.5,49.5c0,26.7,21.2,48.5,47.7,49.5v6.1C295.7,270.6,290.1,276.7,290.1,284.1
			L290.1,284.1z M304.7,259.9c-25.2,0-45.8-20.5-45.8-45.8s20.5-45.8,45.8-45.8s45.8,20.5,45.8,45.8S329.9,259.9,304.7,259.9
			L304.7,259.9z M122,143.8c0-8.3,6.8-15.1,15.1-15.1h237.8c8.3,0,15.1,6.8,15.1,15.1v153.4c0,8.3-6.8,15.1-15.1,15.1h-60.5
			c3-2.7,4.9-6.5,4.9-10.8v-10.7h55.6c4.6,0,8.4-3.8,8.4-8.4V143.8c0-4.6-3.8-8.4-8.4-8.4H137.1c-4.6,0-8.4,3.8-8.4,8.4v138.5
			c0,4.6,3.8,8.4,8.4,8.4h153v10.7c0,4.3,1.9,8.2,4.9,10.8h-0.3h-77.4h-80.2c-8.3,0-15.1-6.8-15.1-15.1L122,143.8z"/>
		<path class="st17" d="M256,308.9c4.1,0,7.4-3.3,7.4-7.4s-3.3-7.4-7.4-7.4s-7.4,3.3-7.4,7.4S251.9,308.9,256,308.9z M256,297.7
			c2,0,3.7,1.7,3.7,3.7s-1.7,3.7-3.7,3.7s-3.7-1.7-3.7-3.7S254,297.7,256,297.7z"/>
		<path class="st17" d="M131.7,369.3h-22.5c-1,0-1.9,0.8-1.9,1.9c0,1,0.8,1.9,1.9,1.9h22.5c1,0,1.9-0.8,1.9-1.9
			C133.6,370.1,132.8,369.3,131.7,369.3z"/>
		<path class="st17" d="M402.8,369.3h-22.5c-1,0-1.9,0.8-1.9,1.9c0,1,0.8,1.9,1.9,1.9h22.5c1,0,1.9-0.8,1.9-1.9
			C404.6,370.1,403.8,369.3,402.8,369.3z"/>
		<path class="st17" d="M362.3,369.3H149.7c-1,0-1.9,0.8-1.9,1.9c0,1,0.8,1.9,1.9,1.9h212.6c1,0,1.9-0.8,1.9-1.9
			C364.2,370.1,363.3,369.3,362.3,369.3z"/>
		<path class="st17" d="M109.2,358.7h9.7c1,0,1.9-0.8,1.9-1.9c0-1-0.8-1.9-1.9-1.9h-9.7c-1,0-1.9,0.8-1.9,1.9
			C107.4,357.8,108.2,358.7,109.2,358.7z"/>
		<path class="st17" d="M391.3,356.8c0,1,0.8,1.9,1.9,1.9h9.7c1,0,1.9-0.8,1.9-1.9c0-1-0.8-1.9-1.9-1.9h-9.7
			C392.1,355,391.3,355.8,391.3,356.8z"/>
		<path class="st17" d="M304.7,176.8c-20.6,0-37.3,16.7-37.3,37.3s16.7,37.3,37.3,37.3c20.6,0,37.3-16.7,37.3-37.3
			S325.3,176.8,304.7,176.8L304.7,176.8z M304.7,247.7c-18.5,0-33.6-15.1-33.6-33.6s15.1-33.6,33.6-33.6c18.5,0,33.6,15.1,33.6,33.6
			S323.2,247.7,304.7,247.7z"/>
		<path class="st17" d="M179.2,229.8h-19.5c-1,0-1.9,0.8-1.9,1.9v30.1c0,1,0.8,1.9,1.9,1.9h19.5c1,0,1.9-0.8,1.9-1.9v-30.1
			C181,230.6,180.2,229.8,179.2,229.8L179.2,229.8z M177.3,259.9h-15.8v-26.4h15.8V259.9z"/>
		<path class="st17" d="M207.7,216.7h-19.5c-1,0-1.9,0.8-1.9,1.9v43.2c0,1,0.8,1.9,1.9,1.9h19.5c1,0,1.9-0.8,1.9-1.9v-43.2
			C209.5,217.5,208.7,216.7,207.7,216.7z M205.8,259.9H190v-39.5h15.8V259.9z"/>
		<path class="st17" d="M236.2,203.6h-19.5c-1,0-1.9,0.8-1.9,1.9v56.3c0,1,0.8,1.9,1.9,1.9h19.5c1,0,1.9-0.8,1.9-1.9v-56.3
			C238,204.4,237.2,203.6,236.2,203.6L236.2,203.6z M234.3,259.9h-15.8v-52.6h15.8V259.9z"/>
		<path class="st17" d="M235,167c-0.7-0.7-1.9-0.7-2.6,0c-0.7,0.7-0.7,1.9,0,2.6l2.7,2.7h-9.5c-0.4,0-0.8,0.1-1.1,0.4l-65.9,48.5
			c-0.8,0.6-1,1.8-0.4,2.6c0.4,0.5,0.9,0.8,1.5,0.8c0.4,0,0.8-0.1,1.1-0.4l65.4-48.1h8.9l-2.7,2.7c-0.7,0.7-0.7,1.9,0,2.6
			c0.4,0.4,0.8,0.5,1.3,0.5c0.5,0,1-0.2,1.3-0.5l5.9-5.9c0.7-0.7,0.7-1.9,0-2.6L235,167z"/>
	</g>
</g>
<g id="о_компании_Выгодно" class="st3">
	<g class="st5">
		<path class="st23" d="M371.7,359.2H140.3c-8.1,0-14.7-6.6-14.7-14.7V143.3c0-8.1,6.6-14.7,14.7-14.7h231.4
			c8.1,0,14.7,6.6,14.7,14.7v201.2C386.4,352.6,379.8,359.2,371.7,359.2z"/>
		<g>
			<path class="st6" d="M147.7,344.5V143.3c0-8.1,6.6-14.7,14.7-14.7h-22.2c-8.1,0-14.7,6.6-14.7,14.7v201.2
				c0,8.1,6.6,14.7,14.7,14.7h22.2C154.4,359.2,147.7,352.6,147.7,344.5z"/>
		</g>
		<g>
			<path class="st7" d="M364.3,344.5V143.3c0-8.1-6.6-14.7-14.7-14.7h22.2c8.1,0,14.7,6.6,14.7,14.7v201.2c0,8.1-6.6,14.7-14.7,14.7
				h-22.2C357.6,359.2,364.3,352.6,364.3,344.5z"/>
		</g>
		<g>
			<path class="st22" d="M386.4,143.3c0-8.1-6.6-14.7-14.7-14.7H140.3c-8.1,0-14.7,6.6-14.7,14.7v33.9h260.9V143.3z"/>
		</g>
		<g>
			<path class="st39" d="M162.5,128.6h-22.2c-8.1,0-14.7,6.6-14.7,14.7v33.9h22.2v-33.9C147.7,135.2,154.4,128.6,162.5,128.6z"/>
		</g>
		<g>
			<path class="st40" d="M349.5,128.6h22.2c8.1,0,14.7,6.6,14.7,14.7v33.9h-22.2v-33.9C364.3,135.2,357.6,128.6,349.5,128.6z"/>
		</g>
		<g>
			<g>
				<circle class="st19" cx="156.2" cy="152.9" r="10.2"/>
				<circle class="st19" cx="187.4" cy="152.9" r="10.2"/>
				<circle class="st19" cx="218.5" cy="152.9" r="10.2"/>
			</g>
			<path class="st24" d="M361.5,157.3h-54.3c-2.4,0-4.5-2-4.5-4.5s2-4.5,4.5-4.5h54.3c2.4,0,4.5,2,4.5,4.5S364,157.3,361.5,157.3z"
				/>
		</g>
	</g>
	<g class="st5">
		<circle class="st19" cx="256" cy="243.9" r="46"/>
		<g>
			<path class="st23" d="M279.3,243.9v16c0,1.2-0.5,2.3-1.4,3.2c-0.9,0.9-2,1.4-3.3,1.4h-14.1v11.3c0,1.3-0.5,2.4-1.4,3.3
				c-0.9,0.9-2,1.3-3.2,1.3c-1.3,0-2.4-0.4-3.4-1.3c-0.9-0.9-1.4-2-1.4-3.3v-11.4h-14c-1.2,0-2.3-0.4-3.2-1.3
				c-0.9-0.9-1.4-2-1.4-3.3c0-1.3,0.4-2.4,1.3-3.3c0.9-0.9,2-1.3,3.3-1.3h32.7v-6.7h-32.6c-1.3,0-2.4-0.4-3.3-1.3
				c-0.9-0.9-1.3-2-1.3-3.3v-16c0-1.3,0.4-2.4,1.3-3.3c0.9-0.9,2-1.3,3.3-1.3h13.9V212c0-1.2,0.4-2.3,1.3-3.2c0.9-0.9,2-1.4,3.5-1.4
				c1.2,0,2.3,0.4,3.2,1.3c0.9,0.9,1.3,2,1.3,3.3v11.3h14.2c1.3,0,2.4,0.5,3.3,1.4c0.9,0.9,1.4,2,1.4,3.2c0,1.3-0.5,2.4-1.4,3.3
				c-0.9,0.9-2,1.4-3.3,1.4H242v6.6h32.6c1.3,0,2.4,0.5,3.3,1.4C278.9,241.6,279.3,242.6,279.3,243.9L279.3,243.9z"/>
		</g>
	</g>
	<path class="st13" d="M277.9,322.8l-6.9-38.5c-0.8-4.7,3.3-8.9,8-8l38.5,6.9c5.5,1,7.6,7.8,3.7,11.7l-7.9,7.9l20.4,20.4
		c3.8,3.8,3.8,9.9,0,13.7l-2.1,2.1c-3.8,3.8-9.9,3.8-13.7,0l-20.4-20.4l-7.9,7.9C285.6,330.4,278.8,328.3,277.9,322.8L277.9,322.8z"
		/>
	<g class="st5">
		<path class="st17" d="M132.8,371.6h-22.3c-1,0-1.8,0.8-1.8,1.8s0.8,1.8,1.8,1.8h22.3c1,0,1.8-0.8,1.8-1.8S133.8,371.6,132.8,371.6
			z"/>
		<path class="st17" d="M401.5,371.6h-22.3c-1,0-1.8,0.8-1.8,1.8s0.8,1.8,1.8,1.8h22.3c1,0,1.8-0.8,1.8-1.8S402.5,371.6,401.5,371.6
			z"/>
		<path class="st17" d="M361.4,371.6H150.6c-1,0-1.8,0.8-1.8,1.8s0.8,1.8,1.8,1.8h210.7c1,0,1.8-0.8,1.8-1.8
			S362.4,371.6,361.4,371.6z"/>
		<path class="st17" d="M403.4,359.2c0-1-0.8-1.8-1.8-1.8h-19.4c3.8-3,6.2-7.7,6.2-12.9V177.2v-33.9c0-9.1-7.4-16.6-16.6-16.6H140.3
			c-9.1,0-16.6,7.4-16.6,16.6v33.9v167.3c0,5.2,2.4,9.9,6.2,12.9h-19.4c-1,0-1.8,0.8-1.8,1.8c0,1,0.8,1.8,1.8,1.8h29.8h231.4h29.8
			C402.5,361.1,403.4,360.2,403.4,359.2z M127.4,143.3c0-7.1,5.8-12.9,12.9-12.9h231.4c7.1,0,12.9,5.8,12.9,12.9v32.1H127.4V143.3z
			 M140.3,357.4c-7.1,0-12.9-5.8-12.9-12.9V196.6h65.6c1,0,1.8-0.8,1.8-1.8s-0.8-1.8-1.8-1.8h-65.6v-13.8h257.2v165.4
			c0,7.1-5.8,12.9-12.9,12.9H140.3z"/>
		<path class="st17" d="M156.2,140.9c-6.6,0-12,5.4-12,12s5.4,12,12,12s12-5.4,12-12S162.8,140.9,156.2,140.9z M156.2,161.2
			c-4.6,0-8.3-3.7-8.3-8.3s3.7-8.3,8.3-8.3c4.6,0,8.3,3.7,8.3,8.3S160.8,161.2,156.2,161.2z"/>
		<path class="st17" d="M187.4,140.9c-6.6,0-12,5.4-12,12s5.4,12,12,12c6.6,0,12-5.4,12-12S194,140.9,187.4,140.9z M187.4,161.2
			c-4.6,0-8.3-3.7-8.3-8.3s3.7-8.3,8.3-8.3c4.6,0,8.3,3.7,8.3,8.3S191.9,161.2,187.4,161.2z"/>
		<path class="st17" d="M218.5,140.9c-6.6,0-12,5.4-12,12s5.4,12,12,12s12-5.4,12-12S225.2,140.9,218.5,140.9z M218.5,161.2
			c-4.6,0-8.3-3.7-8.3-8.3s3.7-8.3,8.3-8.3c4.6,0,8.3,3.7,8.3,8.3S223.1,161.2,218.5,161.2z"/>
		<path class="st17" d="M361.5,146.6h-54.3c-3.5,0-6.3,2.8-6.3,6.3s2.8,6.3,6.3,6.3h54.3c3.5,0,6.3-2.8,6.3-6.3
			S365,146.6,361.5,146.6z M361.5,155.5h-54.3c-1.4,0-2.6-1.2-2.6-2.6c0-1.4,1.2-2.6,2.6-2.6h54.3c1.4,0,2.6,1.2,2.6,2.6
			C364.1,154.3,363,155.5,361.5,155.5z"/>
		<path class="st17" d="M216.7,194.7c0-1-0.8-1.8-1.8-1.8h-8.3c-1,0-1.8,0.8-1.8,1.8s0.8,1.8,1.8,1.8h8.3
			C215.9,196.6,216.7,195.8,216.7,194.7z"/>
		<path class="st17" d="M279.2,264.5c1.3-1.3,2-2.8,2-4.6v-16c0-1.8-0.7-3.3-2-4.6c-1.3-1.3-2.8-1.9-4.6-1.9h-30.7v-2.9h30.9
			c1.8,0,3.3-0.7,4.6-1.9c1.3-1.3,1.9-2.8,1.9-4.6c0-1.8-0.7-3.3-2-4.6c-1.3-1.3-2.8-1.9-4.6-1.9h-12.4V212c0-1.8-0.6-3.3-1.9-4.6
			c-1.3-1.3-2.8-1.9-4.5-1.9c-2,0-3.6,0.7-4.8,2c-1.2,1.3-1.8,2.8-1.8,4.5v9.4h-12c-1.8,0-3.3,0.6-4.6,1.9c-1.3,1.3-1.9,2.8-1.9,4.6
			v16c0,1.8,0.6,3.4,1.9,4.6c1.3,1.2,2.8,1.8,4.6,1.8H268v3h-30.9c-1.8,0-3.3,0.6-4.6,1.9c-1.3,1.3-1.9,2.8-1.9,4.6
			c0,1.8,0.6,3.3,1.9,4.6c1.3,1.2,2.8,1.9,4.5,1.9h12.1v9.6c0,1.8,0.6,3.3,1.9,4.6c1.3,1.2,2.8,1.9,4.6,1.9c1.7,0,3.3-0.6,4.5-1.9
			c1.3-1.3,1.9-2.8,1.9-4.6v-9.4h12.3C276.4,266.4,277.9,265.7,279.2,264.5L279.2,264.5z M260.5,262.7c-1,0-1.8,0.8-1.8,1.8v11.3
			c0,0.8-0.3,1.4-0.8,2c-0.6,0.6-1.2,0.8-2,0.8c-0.8,0-1.5-0.3-2.1-0.8c-0.6-0.6-0.8-1.2-0.8-2v-11.4c0-1-0.8-1.8-1.8-1.8h-14
			c-0.8,0-1.4-0.3-2-0.8c-0.6-0.6-0.8-1.2-0.8-2c0-0.8,0.3-1.4,0.8-2c0.6-0.6,1.2-0.8,2-0.8h32.7c1,0,1.8-0.8,1.8-1.8v-6.7
			c0-1-0.8-1.8-1.8-1.8h-32.6c-0.8,0-1.4-0.3-2-0.8c-0.5-0.5-0.8-1.2-0.8-2v-16c0-0.8,0.3-1.4,0.8-2c0.6-0.6,1.2-0.8,2-0.8h13.9
			c1,0,1.8-0.8,1.8-1.8V212c0-0.8,0.3-1.4,0.8-2c0.3-0.3,0.9-0.8,2.2-0.8c0.8,0,1.4,0.3,1.9,0.8c0.6,0.6,0.8,1.2,0.8,2v11.3
			c0,1,0.8,1.8,1.8,1.8h14.2c0.8,0,1.4,0.3,2,0.8c0.6,0.6,0.9,1.2,0.9,1.9c0,0.8-0.3,1.4-0.9,2c-0.6,0.6-1.2,0.9-2,0.9H242
			c-1,0-1.8,0.8-1.8,1.8v6.6c0,1,0.8,1.8,1.8,1.8h32.6c0.8,0,1.4,0.3,2,0.8c0.6,0.6,0.9,1.2,0.9,1.9v16c0,0.7-0.3,1.4-0.9,1.9
			c-0.6,0.6-1.2,0.8-2,0.8L260.5,262.7L260.5,262.7z"/>
		<path class="st17" d="M315.9,302.7l6.6-6.6c2.3-2.3,3.1-5.7,2.2-8.8c-1-3.1-3.6-5.4-6.8-6l-26.8-4.8c8.3-8.9,12.8-20.3,12.8-32.6
			c0-26.4-21.5-47.9-47.9-47.9c-26.4,0-47.9,21.5-47.9,47.9s21.5,47.9,47.9,47.9c4.8,0,9.5-0.7,14.1-2.1l6,33.4
			c0.6,3.2,2.9,5.8,6,6.8c3.1,1,6.5,0.2,8.8-2.2l6.6-6.6l19.1,19.1c2.2,2.2,5.1,3.4,8.2,3.4c3.1,0,6-1.2,8.2-3.4l2.1-2.1
			c4.5-4.5,4.5-11.8,0-16.3L315.9,302.7z M256,288.1c-24.4,0-44.2-19.8-44.2-44.2s19.8-44.2,44.2-44.2s44.2,19.8,44.2,44.2
			c0,12.1-4.8,23.4-13.5,31.8l-7.3-1.3c-2.8-0.5-5.7,0.4-7.7,2.4c-2,2-2.9,4.9-2.4,7.7l0.3,1.4C265.1,287.4,260.6,288.1,256,288.1
			L256,288.1z M332.4,335.5l-2.1,2.1c-1.5,1.5-3.5,2.3-5.6,2.3c-2.1,0-4.1-0.8-5.6-2.3l-20.4-20.4c-0.4-0.4-0.8-0.5-1.3-0.5
			s-0.9,0.2-1.3,0.5l-7.9,7.9c-1.4,1.4-3.3,1.8-5.1,1.3c-1.8-0.6-3.1-2.1-3.5-4l-6.9-38.5c-0.3-1.7,0.2-3.3,1.4-4.5
			c1.2-1.2,2.8-1.7,4.5-1.4l38.5,6.9c1.9,0.3,3.4,1.6,4,3.5c0.6,1.8,0.1,3.8-1.3,5.1l-7.9,7.9c-0.7,0.7-0.7,1.9,0,2.6l20.4,20.4
			C335.4,327.5,335.4,332.5,332.4,335.5L332.4,335.5z"/>
		<path class="st17" d="M340.8,242.1H309c-1,0-1.8,0.8-1.8,1.8s0.8,1.8,1.8,1.8h31.8c1,0,1.8-0.8,1.8-1.8S341.8,242.1,340.8,242.1z"
			/>
		<path class="st17" d="M309,223.1c0.3,0,0.6-0.1,0.8-0.2l23.1-11.7c0.9-0.5,1.3-1.6,0.8-2.5c-0.5-0.9-1.6-1.3-2.5-0.8l-23.1,11.7
			c-0.9,0.5-1.3,1.6-0.8,2.5C307.7,222.7,308.3,223.1,309,223.1L309,223.1z"/>
		<path class="st17" d="M331.2,280c0.3,0.1,0.6,0.2,0.8,0.2c0.7,0,1.3-0.4,1.6-1c0.5-0.9,0.1-2-0.8-2.5L309.8,265
			c-0.9-0.5-2-0.1-2.5,0.8c-0.5,0.9-0.1,2,0.8,2.5L331.2,280z"/>
		<path class="st17" d="M203,242.1h-31.8c-1,0-1.8,0.8-1.8,1.8s0.8,1.8,1.8,1.8H203c1,0,1.8-0.8,1.8-1.8S204,242.1,203,242.1z"/>
		<path class="st17" d="M202.2,265l-23.1,11.7c-0.9,0.5-1.3,1.6-0.8,2.5c0.3,0.6,1,1,1.6,1c0.3,0,0.6-0.1,0.8-0.2l23.1-11.7
			c0.9-0.5,1.3-1.6,0.8-2.5C204.2,264.9,203.1,264.5,202.2,265z"/>
		<path class="st17" d="M179.1,211.1l23.1,11.7c0.3,0.1,0.6,0.2,0.8,0.2c0.7,0,1.3-0.4,1.6-1c0.5-0.9,0.1-2-0.8-2.5l-23.1-11.7
			c-0.9-0.5-2-0.1-2.5,0.8C177.9,209.5,178.2,210.6,179.1,211.1z"/>
	</g>
</g>
</svg>
